<svg xmlns="http://www.w3.org/2000/svg" width="32.666" height="40" viewBox="0 0 32.666 40">
  <g id="Group_6342" data-name="Group 6342" transform="translate(-158.691 -136.508)">
    <path id="Path_11660" data-name="Path 11660" d="M233.281,158.96a3.031,3.031,0,0,1-.661-.446.618.618,0,0,1,.131-.367.732.732,0,0,0-1.1-.969,2.082,2.082,0,0,0-.494,1.445,1.578,1.578,0,0,0,.57,1.107,4.677,4.677,0,0,0,.886.534c1.159.592,1.671.99,1.375,2.076s-2.19,1.858-4.027,2.617c-2.1.866-4.866,2.387-6.033,4.22a28.384,28.384,0,0,1-3.253-1.676,16.856,16.856,0,0,1-7.491-12.138c-.354-3.281.3-6.653.927-9.916.24-1.236.488-2.516.679-3.784.055-.365.1-.734.137-1.1a9.661,9.661,0,0,1,6.845,6.073c1.033,2.879,3.913,3.4,6.455,3.858.588.107,1.187.251,1.769.35.184.031.248.078.169.3a11.323,11.323,0,0,1-.537,1.141c-.507.934-.985,1.815-.306,2.388a4.76,4.76,0,0,0,1.293.641c.387.109.3.369.3.369a12.88,12.88,0,0,1-2.668,2.337.732.732,0,0,0,.737,1.265,14.344,14.344,0,0,0,3.094-2.714,1.373,1.373,0,0,0,.2-1.412,3.035,3.035,0,0,0-.307-.716,5.953,5.953,0,0,0-1.428-.754c.1-.213.25-.5.365-.706a4.246,4.246,0,0,0,.722-1.98,1.65,1.65,0,0,0-1.083-1.534,18.949,18.949,0,0,0-2.066-.42c-2.463-.445-4.59-.828-5.338-2.912a11.312,11.312,0,0,0-2.889-4.339,11.547,11.547,0,0,0-5.3-2.743,5.418,5.418,0,0,0-.557-2.149.732.732,0,1,0-1.3.666,6.518,6.518,0,0,1,.245,3.871c-.188,1.236-.433,2.5-.669,3.724-.651,3.369-1.324,6.852-.945,10.351a18.338,18.338,0,0,0,8.143,13.206c2.061,1.35,3.9,1.693,5.571,3.149,1.293,1.131,1.6,2.334.117,3.286a.732.732,0,0,0,.79,1.232c2.326-1.492,2.074-3.858.055-5.622a9.737,9.737,0,0,0-1.278-.937c.944-1.625,3.428-2.712,5.394-3.524,2.263-.934,4.4-1.817,4.881-3.584C236.043,160.373,234.246,159.454,233.281,158.96Z" transform="translate(-44.18)" fill="#2394ba"/>
    <path id="Path_11661" data-name="Path 11661" d="M249.578,217.639a.732.732,0,0,1,.567-.866,3.227,3.227,0,0,0,2.558-2.344.732.732,0,0,1,1.432.3,4.645,4.645,0,0,1-3.691,3.474A.732.732,0,0,1,249.578,217.639Z" transform="translate(-75.85 -64.556)" fill="#2394ba"/>
    <path id="Path_11662" data-name="Path 11662" d="M231.77,197.624a.732.732,0,0,1-.339-.978A11.24,11.24,0,0,1,235,192.277a.732.732,0,1,1,.736,1.265,9.836,9.836,0,0,0-2.986,3.743A.732.732,0,0,1,231.77,197.624Z" transform="translate(-60.654 -46.467)" fill="#2394ba"/>
    <path id="Path_11663" data-name="Path 11663" d="M200.2,190.843c-3.375-.433-14.094-5.444-14.314-13.923a26.8,26.8,0,0,1,1.923-10.559,35.715,35.715,0,0,0,2.05-8.3.732.732,0,0,1,1.455.164,36.933,36.933,0,0,1-2.12,8.615,25.582,25.582,0,0,0-1.843,10.044c.194,7.485,10.066,12.129,13.037,12.509a.7.7,0,0,1,.633.819C200.8,191,200.227,190.847,200.2,190.843Z" transform="translate(-22.687 -17.446)" fill="#2394ba"/>
    <path id="Path_11664" data-name="Path 11664" d="M159.425,210.747a.748.748,0,0,1-.733-.756,11.471,11.471,0,0,1,2.19-7.379c.648-.965,1.24-1.663,1.734-2.515a4.192,4.192,0,0,0,.681-2.488.732.732,0,1,1,1.456-.152,5.6,5.6,0,0,1-.871,3.371c-.541.934-1.225,1.753-1.786,2.588A9.976,9.976,0,0,0,160.156,210,.748.748,0,0,1,159.425,210.747Z" transform="translate(0 -50.327)" fill="#2394ba"/>
  </g>
</svg>
