<svg xmlns="http://www.w3.org/2000/svg" width="37.867" height="37.776" viewBox="0 0 37.867 37.776">
  <g id="Group_5954" data-name="Group 5954" transform="translate(-835.994 -826.25)">
    <g id="health-insurance-donation" transform="translate(837 827)">
      <g id="Group_5953" data-name="Group 5953" transform="translate(0 21.482)">
        <path id="Path_11559" data-name="Path 11559" d="M407,460.745l3.481-1.738,5.806,9.29-2.9,1.738" transform="translate(-407 -455.519)" fill="none" stroke="#2394ba" stroke-linecap="round" stroke-linejoin="round" stroke-width="1.5"/>
        <path id="Path_11560" data-name="Path 11560" d="M425.455,457.645l6.961,0a2.32,2.32,0,0,0,2.32-2.321h0a2.32,2.32,0,0,0-2.32-2.32l-8.876,0a5.8,5.8,0,0,0-2.923.79l-5.607,3.271" transform="translate(-410.359 -453)" fill="none" stroke="#2394ba" stroke-linecap="round" stroke-linejoin="round" stroke-width="1.5"/>
        <path id="Path_11561" data-name="Path 11561" d="M436.185,457.656l10.148-4.453a2.329,2.329,0,0,1,3.034,1.256h0a2.33,2.33,0,0,1-1.256,3.035l-10.26,4.928a5.818,5.818,0,0,1-2.266.46h-9.118a3.476,3.476,0,0,0-1.791.5l-2.074,1.245" transform="translate(-413.544 -453.011)" fill="none" stroke="#2394ba" stroke-linecap="round" stroke-linejoin="round" stroke-width="1.5"/>
      </g>
      <path id="Path_11562" data-name="Path 11562" d="M434.7,440.966c3.787-2.951,10.814-10.859,10.814-16.257a8.7,8.7,0,0,0-16.257-4.333A8.7,8.7,0,0,0,413,424.709c0,3.886,3.642,9.073,7.094,12.775" transform="translate(-409.516 -416)" fill="none" stroke="#2394ba" stroke-linecap="round" stroke-linejoin="round" stroke-width="1.5"/>
      <path id="Path_11563" data-name="Path 11563" d="M425,436.967h4.064l1.742-2.9,2.9,5.806,3.484-9.87,2.9,6.967h3.484" transform="translate(-414.549 -421.871)" fill="none" stroke="#2394ba" stroke-linecap="square" stroke-linejoin="round" stroke-width="1.5"/>
    </g>
  </g>
</svg>
