<svg xmlns="http://www.w3.org/2000/svg" width="540" height="143.913" viewBox="0 0 540 143.913">
  <g id="Group_5745" data-name="Group 5745" transform="translate(7620 9747.999)">
    <g id="Group_4974" data-name="Group 4974" transform="translate(-7265.647 -9620.401)">
      <path id="Path_11072" data-name="Path 11072" d="M2354.361,1121.473a.863.863,0,0,1-.863-.863v-14.221a.863.863,0,1,1,1.726,0v14.221A.863.863,0,0,1,2354.361,1121.473Z" transform="translate(-2353.499 -1105.525)" fill="#2394ba"/>
      <g id="Group_4973" data-name="Group 4973">
        <path id="Path_11073" data-name="Path 11073" d="M2370.784,1131.451h-16.422a.863.863,0,0,1,0-1.726h16.422a.863.863,0,0,1,0,1.726Z" transform="translate(-2353.499 -1126.343)" fill="#2394ba"/>
        <path id="Path_11074" data-name="Path 11074" d="M2434.687,1121.473a.863.863,0,0,1-.863-.863v-14.221a.863.863,0,1,1,1.726,0v14.221A.863.863,0,0,1,2434.687,1121.473Z" transform="translate(-2422.596 -1105.525)" fill="#2394ba"/>
        <path id="Path_11075" data-name="Path 11075" d="M2394.524,1121.473a.863.863,0,0,1-.863-.863v-14.221a.863.863,0,1,1,1.726,0v14.221A.863.863,0,0,1,2394.524,1121.473Z" transform="translate(-2388.048 -1105.525)" fill="#2394ba"/>
      </g>
    </g>
    <g id="Group_4976" data-name="Group 4976" transform="translate(-7171.332 -9620.401)">
      <path id="Path_11076" data-name="Path 11076" d="M3146.628,1121.473a.863.863,0,0,1-.863-.863v-14.221a.863.863,0,1,1,1.726,0v14.221A.863.863,0,0,1,3146.628,1121.473Z" transform="translate(-3129.344 -1105.525)" fill="#2394ba"/>
      <g id="Group_4975" data-name="Group 4975">
        <path id="Path_11077" data-name="Path 11077" d="M3045.559,1131.451h-16.422a.863.863,0,0,1,0-1.726h16.422a.863.863,0,1,1,0,1.726Z" transform="translate(-3028.274 -1126.343)" fill="#2394ba"/>
        <path id="Path_11078" data-name="Path 11078" d="M3066.3,1121.473a.863.863,0,0,1-.863-.863v-14.221a.863.863,0,1,1,1.726,0v14.221A.863.863,0,0,1,3066.3,1121.473Z" transform="translate(-3060.246 -1105.525)" fill="#2394ba"/>
        <path id="Path_11079" data-name="Path 11079" d="M3106.466,1121.473a.863.863,0,0,1-.863-.863v-14.221a.863.863,0,1,1,1.726,0v14.221A.863.863,0,0,1,3106.466,1121.473Z" transform="translate(-3094.794 -1105.525)" fill="#2394ba"/>
      </g>
    </g>
    <g id="Group_4977" data-name="Group 4977" transform="translate(-7553.166 -9688.71)">
      <path id="Path_11080" data-name="Path 11080" d="M321,625.16a.863.863,0,0,1-.863-.863v-6.614a.863.863,0,1,1,1.726,0V624.3A.863.863,0,0,1,321,625.16Z" transform="translate(-316.826 -616.82)" fill="#2394ba"/>
      <path id="Path_11081" data-name="Path 11081" d="M303.949,642.2h-6.614a.863.863,0,1,1,0-1.726h6.614a.863.863,0,1,1,0,1.726Z" transform="translate(-296.472 -637.172)" fill="#2394ba"/>
    </g>
    <g id="Group_4978" data-name="Group 4978" transform="translate(-7160.616 -9688.56)">
      <path id="Path_11082" data-name="Path 11082" d="M3129.466,626.235a.863.863,0,0,1-.863-.863v-6.615a.863.863,0,1,1,1.726,0v6.615A.863.863,0,0,1,3129.466,626.235Z" transform="translate(-3125.296 -617.895)" fill="#2394ba"/>
      <path id="Path_11083" data-name="Path 11083" d="M3112.419,643.283H3105.8a.863.863,0,1,1,0-1.726h6.615a.863.863,0,1,1,0,1.726Z" transform="translate(-3104.941 -638.25)" fill="#2394ba"/>
    </g>
    <g id="Group_4983" data-name="Group 4983" transform="translate(-7413.652 -9664.329)">
      <g id="Group_4980" data-name="Group 4980" transform="translate(0 12.657)">
        <path id="Path_11084" data-name="Path 11084" d="M1302.772,948.763h-7.3a.863.863,0,0,1,0-1.726h7.3a.863.863,0,1,1,0,1.726Z" transform="translate(-1294.607 -937.919)" fill="#ed690e"/>
        <g id="Group_4979" data-name="Group 4979" transform="translate(7.7)">
          <path id="Path_11085" data-name="Path 11085" d="M1357.861,883.529h-7.3a.863.863,0,0,1,0-1.726h7.3a.863.863,0,0,1,0,1.726Z" transform="translate(-1349.696 -881.803)" fill="#ed690e"/>
          <path id="Path_11086" data-name="Path 11086" d="M1357.861,1014h-7.3a.863.863,0,0,1,0-1.726h7.3a.863.863,0,0,1,0,1.726Z" transform="translate(-1349.696 -994.037)" fill="#ed690e"/>
        </g>
      </g>
      <g id="Group_4982" data-name="Group 4982" transform="translate(25.116)">
        <path id="Path_11087" data-name="Path 11087" d="M1910.442,926.594h-3.54a.812.812,0,1,1,0-1.623h3.54a3.379,3.379,0,0,0,3.375-3.376V916.92a8.783,8.783,0,0,0-3.008-6.084l-.054-.045-21.092-19.245c-1.149-.857-1.824-.847-3.432-.823-.281,0-.584.009-.914.009h-10.973a.812.812,0,0,1,0-1.624h10.973c.322,0,.616,0,.89-.008a6.013,6.013,0,0,1,4.463,1.172l.058.049,21.1,19.249a10.329,10.329,0,0,1,3.617,7.352V921.6A5,5,0,0,1,1910.442,926.594Z" transform="translate(-1817.731 -875.416)" fill="#ed690e"/>
        <path id="Path_11088" data-name="Path 11088" d="M1992.092,1103.057a9.465,9.465,0,1,1,9.465-9.465A9.476,9.476,0,0,1,1992.092,1103.057Zm0-17.307a7.842,7.842,0,1,0,7.842,7.842A7.851,7.851,0,0,0,1992.092,1085.75Z" transform="translate(-1911.576 -1043.19)" fill="#ed690e"/>
        <path id="Path_11089" data-name="Path 11089" d="M2021.694,1127.849a4.655,4.655,0,1,1,4.655-4.656A4.661,4.661,0,0,1,2021.694,1127.849Zm0-7.687a3.032,3.032,0,1,0,3.032,3.031A3.035,3.035,0,0,0,2021.694,1120.162Z" transform="translate(-1941.179 -1072.792)" fill="#ed690e"/>
        <path id="Path_11090" data-name="Path 11090" d="M1887.337,1147.411h-15.616a.812.812,0,1,1,0-1.624h15.616a.812.812,0,1,1,0,1.624Z" transform="translate(-1815.474 -1096.232)" fill="#ed690e"/>
        <path id="Path_11091" data-name="Path 11091" d="M1916.824,1085.75h-11.4a.812.812,0,0,1,0-1.624h11.4a.812.812,0,0,1,0,1.624Z" transform="translate(-1844.464 -1043.19)" fill="#ed690e"/>
        <path id="Path_11092" data-name="Path 11092" d="M1927.735,930.2h-22.313l-.812-.812V917.324l.812-.812h9.482l.556.22,12.832,12.066Zm-21.5-1.623h19.453l-11.105-10.443h-8.348Z" transform="translate(-1844.464 -899.004)" fill="#ed690e"/>
        <path id="Path_11093" data-name="Path 11093" d="M1871.373,926.859a.812.812,0,0,1-.811-.812V890.762a.812.812,0,1,1,1.623,0v35.286A.812.812,0,0,1,1871.373,926.859Z" transform="translate(-1815.174 -876.155)" fill="#ed690e"/>
        <path id="Path_11094" data-name="Path 11094" d="M2109.2,1048.994a.843.843,0,0,1-.088,0c-5.263-.564-8.8-6.849-8.943-7.116l.711-1.2h5.62a.812.812,0,0,1,0,1.624h-4.132c1.219,1.73,3.77,4.746,6.917,5.083a.812.812,0,0,1-.085,1.619Z" transform="translate(-2012.692 -1005.806)" fill="#ed690e"/>
        <g id="Group_4981" data-name="Group 4981" transform="translate(12.169 40.936)">
          <path id="Path_11095" data-name="Path 11095" d="M1570.828,1103.057a9.465,9.465,0,1,1,9.465-9.465A9.476,9.476,0,0,1,1570.828,1103.057Zm0-17.307a7.842,7.842,0,1,0,7.842,7.842A7.85,7.85,0,0,0,1570.828,1085.75Z" transform="translate(-1561.363 -1084.126)" fill="#ed690e"/>
          <path id="Path_11096" data-name="Path 11096" d="M1600.431,1127.849a4.655,4.655,0,1,1,4.655-4.656A4.661,4.661,0,0,1,1600.431,1127.849Zm0-7.687a3.032,3.032,0,1,0,3.032,3.031A3.035,3.035,0,0,0,1600.431,1120.162Z" transform="translate(-1590.965 -1113.728)" fill="#ed690e"/>
        </g>
        <path id="Path_11097" data-name="Path 11097" d="M1718.113,1147.411H1686a.812.812,0,0,1,0-1.624h32.117a.812.812,0,1,1,0,1.624Z" transform="translate(-1655.708 -1096.232)" fill="#ed690e"/>
        <path id="Path_11098" data-name="Path 11098" d="M1530.809,1094.368h-1.2a4.714,4.714,0,0,1-4.709-4.709v-4.721a.812.812,0,1,1,1.624,0v4.721a3.089,3.089,0,0,0,3.085,3.085h1.2a.812.812,0,0,1,0,1.623Z" transform="translate(-1517.829 -1043.19)" fill="#ed690e"/>
        <path id="Path_11099" data-name="Path 11099" d="M1940,925.767a.812.812,0,0,1-.617-1.339l4.924-5.774a.812.812,0,1,1,1.235,1.053l-4.924,5.774A.809.809,0,0,1,1940,925.767Z" transform="translate(-1874.21 -900.602)" fill="#ed690e"/>
        <path id="Path_11100" data-name="Path 11100" d="M1942.153,964.319a.812.812,0,0,1-.617-1.338l5.564-6.523a.812.812,0,0,1,1.235,1.053l-5.564,6.523A.809.809,0,0,1,1942.153,964.319Z" transform="translate(-1876.062 -933.121)" fill="#ed690e"/>
        <rect id="Rectangle_727" data-name="Rectangle 727" width="3.757" height="1.624" transform="translate(60.958 33.395)" fill="#ed690e"/>
        <path id="Path_11101" data-name="Path 11101" d="M1530.5,833.811h-55.387L1474.3,833V792.063l.812-.812H1530.5l.812.812V833Zm-54.575-1.623h53.763V792.874h-53.763Z" transform="translate(-1474.301 -791.251)" fill="#ed690e"/>
        <path id="Path_11102" data-name="Path 11102" d="M1501.347,825.434a.812.812,0,0,1-.812-.812V818.3l.812-.812h6.325a.812.812,0,1,1,0,1.623h-5.513v5.514A.812.812,0,0,1,1501.347,825.434Z" transform="translate(-1496.869 -813.818)" fill="#ed690e"/>
        <path id="Path_11103" data-name="Path 11103" d="M1806.211,825.434a.812.812,0,0,1-.812-.812v-5.514h-5.514a.812.812,0,1,1,0-1.623h6.326l.812.812v6.325A.812.812,0,0,1,1806.211,825.434Z" transform="translate(-1753.68 -813.818)" fill="#ed690e"/>
        <path id="Path_11104" data-name="Path 11104" d="M1806.211,1020.588h-6.326a.812.812,0,0,1,0-1.624h5.514v-5.513a.812.812,0,1,1,1.623,0v6.325Z" transform="translate(-1753.68 -981.695)" fill="#ed690e"/>
        <path id="Path_11105" data-name="Path 11105" d="M1507.672,1020.588h-6.325l-.812-.812v-6.325a.812.812,0,0,1,1.624,0v5.513h5.513a.812.812,0,1,1,0,1.624Z" transform="translate(-1496.869 -981.695)" fill="#ed690e"/>
      </g>
    </g>
    <g id="Group_4988" data-name="Group 4988" transform="translate(-7171.697 -9745.437)">
      <path id="Path_11106" data-name="Path 11106" d="M3071.109,263.744a7.326,7.326,0,1,1,7.326-7.326A7.334,7.334,0,0,1,3071.109,263.744Zm0-13.028a5.7,5.7,0,1,0,5.7,5.7A5.709,5.709,0,0,0,3071.109,250.716Z" transform="translate(-3058.455 -243.765)" fill="#ed690e"/>
      <g id="Group_4984" data-name="Group 4984" transform="translate(11.842)">
        <path id="Path_11107" data-name="Path 11107" d="M3111.2,217.924a.812.812,0,0,1-.812-.812v-5.328a.812.812,0,0,1,1.624,0v5.328A.812.812,0,0,1,3111.2,217.924Z" transform="translate(-3110.387 -210.972)" fill="#ed690e"/>
        <path id="Path_11108" data-name="Path 11108" d="M3111.2,349.251a.812.812,0,0,1-.812-.812v-5.328a.812.812,0,0,1,1.624,0v5.328A.812.812,0,0,1,3111.2,349.251Z" transform="translate(-3110.387 -323.943)" fill="#ed690e"/>
      </g>
      <g id="Group_4985" data-name="Group 4985" transform="translate(0 11.842)">
        <path id="Path_11109" data-name="Path 11109" d="M3163.13,297.319H3157.8a.812.812,0,0,1,0-1.623h5.329a.812.812,0,1,1,0,1.623Z" transform="translate(-3138.634 -295.696)" fill="#ed690e"/>
        <path id="Path_11110" data-name="Path 11110" d="M3031.8,297.319h-5.328a.812.812,0,1,1,0-1.623h5.328a.812.812,0,0,1,0,1.623Z" transform="translate(-3025.661 -295.696)" fill="#ed690e"/>
      </g>
      <g id="Group_4986" data-name="Group 4986" transform="translate(3.469 3.469)">
        <path id="Path_11111" data-name="Path 11111" d="M3144.152,241.178a.812.812,0,0,1-.574-1.386l3.768-3.767a.812.812,0,0,1,1.148,1.148l-3.768,3.767A.81.81,0,0,1,3144.152,241.178Z" transform="translate(-3130.359 -235.787)" fill="#ed690e"/>
        <path id="Path_11112" data-name="Path 11112" d="M3051.289,334.041a.812.812,0,0,1-.573-1.386l3.767-3.767a.812.812,0,0,1,1.147,1.148l-3.767,3.767A.81.81,0,0,1,3051.289,334.041Z" transform="translate(-3050.477 -315.67)" fill="#ed690e"/>
      </g>
      <g id="Group_4987" data-name="Group 4987" transform="translate(3.469 3.469)">
        <path id="Path_11113" data-name="Path 11113" d="M3147.919,334.041a.81.81,0,0,1-.574-.238l-3.768-3.767a.812.812,0,1,1,1.148-1.148l3.768,3.767a.812.812,0,0,1-.574,1.386Z" transform="translate(-3130.359 -315.67)" fill="#ed690e"/>
        <path id="Path_11114" data-name="Path 11114" d="M3055.057,241.178a.81.81,0,0,1-.574-.238l-3.767-3.767a.812.812,0,0,1,1.148-1.148l3.767,3.767a.812.812,0,0,1-.573,1.386Z" transform="translate(-3050.477 -235.787)" fill="#ed690e"/>
      </g>
    </g>
    <g id="Group_4989" data-name="Group 4989" transform="translate(-7290.216 -9669.262)">
      <path id="Path_11115" data-name="Path 11115" d="M2202.245,764.3a.863.863,0,0,1-.863-.863v-6.614a.863.863,0,1,1,1.726,0v6.614A.863.863,0,0,1,2202.245,764.3Z" transform="translate(-2198.075 -755.958)" fill="#2394ba"/>
      <path id="Path_11116" data-name="Path 11116" d="M2185.2,781.343h-6.614a.863.863,0,1,1,0-1.726h6.614a.863.863,0,1,1,0,1.726Z" transform="translate(-2177.721 -776.31)" fill="#2394ba"/>
    </g>
    <g id="Group_4990" data-name="Group 4990" transform="translate(-7454.487 -9745.326)">
      <path id="Path_11117" data-name="Path 11117" d="M1026.979,220.1a.863.863,0,0,1-.863-.863v-6.614a.863.863,0,0,1,1.726,0v6.614A.863.863,0,0,1,1026.979,220.1Z" transform="translate(-1022.809 -211.76)" fill="#2394ba"/>
      <path id="Path_11118" data-name="Path 11118" d="M1009.933,237.147h-6.614a.863.863,0,0,1,0-1.726h6.614a.863.863,0,0,1,0,1.726Z" transform="translate(-1002.456 -232.114)" fill="#2394ba"/>
    </g>
    <g id="Group_4991" data-name="Group 4991" transform="translate(-7257.405 -9747.999)">
      <path id="Path_11119" data-name="Path 11119" d="M2425.93,250.05h-12.651a.812.812,0,0,1,0-1.624h12.651a.812.812,0,0,1,0,1.624Z" transform="translate(-2412.467 -240.628)" fill="#2394ba"/>
      <path id="Path_11120" data-name="Path 11120" d="M2450.131,204.715h-13.987a.812.812,0,1,1,0-1.623h13.987a2.894,2.894,0,1,0-1.642-5.277l-1.262-.536a3.6,3.6,0,0,0-6.936-.665l-1.53-.023a2.1,2.1,0,0,0-2.077-1.267,2.327,2.327,0,0,0-2.324,2.324.812.812,0,0,1-1.624,0,3.952,3.952,0,0,1,3.947-3.948,3.773,3.773,0,0,1,2.77,1.079,5.256,5.256,0,0,1,4.219-2.141,5.2,5.2,0,0,1,4.87,3.328,4.518,4.518,0,1,1,1.587,8.749Z" transform="translate(-2429.905 -192.638)" fill="#2394ba"/>
    </g>
    <g id="Group_4992" data-name="Group 4992" transform="translate(-7556.421 -9730.566)">
      <path id="Path_11121" data-name="Path 11121" d="M286.639,374.772H273.989a.812.812,0,0,1,0-1.623h12.651a.812.812,0,1,1,0,1.623Z" transform="translate(-273.177 -365.351)" fill="#2394ba"/>
      <path id="Path_11122" data-name="Path 11122" d="M310.841,329.435H296.853a.812.812,0,0,1,0-1.624h13.988a2.895,2.895,0,1,0-1.642-5.277L307.936,322a3.6,3.6,0,0,0-6.935-.665l-1.53-.023a2.1,2.1,0,0,0-2.077-1.267,2.326,2.326,0,0,0-2.324,2.324.812.812,0,0,1-1.624,0,3.952,3.952,0,0,1,3.947-3.947,3.773,3.773,0,0,1,2.77,1.079,5.256,5.256,0,0,1,4.219-2.141,5.2,5.2,0,0,1,4.87,3.329,4.518,4.518,0,1,1,1.587,8.749Z" transform="translate(-290.614 -317.358)" fill="#2394ba"/>
    </g>
    <path id="Path_11123" data-name="Path 11123" d="M715.03,1212.262H177.022a.829.829,0,1,1,0-1.624H715.03a.829.829,0,1,1,0,1.624Z" transform="translate(-7796.026 -10816.348)" fill="#2394ba"/>
    <g id="Group_4999" data-name="Group 4999" transform="translate(-7253.275 -9676.892)">
      <path id="Path_11124" data-name="Path 11124" d="M2472.99,1009.306a.812.812,0,0,1-.812-.812V975.517a.812.812,0,0,1,1.624,0v32.977A.811.811,0,0,1,2472.99,1009.306Z" transform="translate(-2467.962 -936.501)" fill="#ed690e"/>
      <g id="Group_4998" data-name="Group 4998">
        <path id="Path_11125" data-name="Path 11125" d="M2732.821,955H2684.6l-.812-.812v-41.8a.812.812,0,0,1,1.624,0v40.989h46.594V912.616a.812.812,0,0,1,1.624,0V954.19Z" transform="translate(-2649.997 -882.197)" fill="#ed690e"/>
        <g id="Group_4993" data-name="Group 4993" transform="translate(0 9.883)">
          <path id="Path_11126" data-name="Path 11126" d="M2661.011,773.7h-20.145a.812.812,0,1,1,0-1.623h20.145a.812.812,0,0,1,0,1.623Z" transform="translate(-2612.375 -772.079)" fill="#ed690e"/>
          <path id="Path_11127" data-name="Path 11127" d="M2476.35,802.024h-33.542l-.794-.979,5.977-28.322.794-.644H2463.6a.812.812,0,1,1,0,1.623h-14.158l-5.634,26.7h32.541a.812.812,0,1,1,0,1.623Z" transform="translate(-2442.014 -772.079)" fill="#ed690e"/>
        </g>
        <g id="Group_4994" data-name="Group 4994" transform="translate(25.794 0.488)">
          <path id="Path_11128" data-name="Path 11128" d="M2662.481,769.395a.812.812,0,0,1-.571-1.389l27.2-26.9a.812.812,0,1,1,1.141,1.154l-27.2,26.9A.809.809,0,0,1,2662.481,769.395Z" transform="translate(-2656.761 -735.841)" fill="#ed690e"/>
          <path id="Path_11129" data-name="Path 11129" d="M2884.289,769.395a.808.808,0,0,1-.57-.235l-27.2-26.9a.811.811,0,1,1,1.141-1.154l27.2,26.9a.812.812,0,0,1-.571,1.389Z" transform="translate(-2824.167 -735.841)" fill="#ed690e"/>
          <path id="Path_11130" data-name="Path 11130" d="M2627.366,738.406a.812.812,0,0,1-.575-1.385l32.109-32.153h1.149l32.089,32.125a.812.812,0,0,1-1.149,1.147l-31.514-31.549-31.535,31.578A.808.808,0,0,1,2627.366,738.406Z" transform="translate(-2626.554 -704.868)" fill="#ed690e"/>
          <path id="Path_11131" data-name="Path 11131" d="M3086.664,934.639a.781.781,0,0,1-.635-.324l-.021-.029a.812.812,0,0,1,1.311-.957.818.818,0,0,1-.654,1.31Z" transform="translate(-3021.653 -901.109)" fill="#ed690e"/>
          <path id="Path_11132" data-name="Path 11132" d="M2632.256,934.864h-4.83a.812.812,0,1,1,0-1.623h4.83a.812.812,0,1,1,0,1.623Z" transform="translate(-2626.606 -901.32)" fill="#ed690e"/>
          <path id="Path_11133" data-name="Path 11133" d="M3057.059,934.864h-4.83a.812.812,0,1,1,0-1.623h4.83a.812.812,0,1,1,0,1.623Z" transform="translate(-2992.033 -901.32)" fill="#ed690e"/>
        </g>
        <path id="Path_11134" data-name="Path 11134" d="M2599.551,735.716h-6.508l-.811-.812V724.164l.811-.812h6.508l.812.812V734.9Zm-5.7-1.623h4.885v-9.117h-4.885Z" transform="translate(-2571.235 -720.28)" fill="#ed690e"/>
        <path id="Path_11135" data-name="Path 11135" d="M2591.105,706.07h-9.786l-.811-.812v-3.072l.811-.812h9.786l.812.812v3.072Zm-8.974-1.623h8.163V703h-8.163Z" transform="translate(-2561.15 -701.374)" fill="#ed690e"/>
        <g id="Group_4995" data-name="Group 4995" transform="translate(14.241 47.231)">
          <path id="Path_11136" data-name="Path 11136" d="M2548.218,1050.072h-3.507l-.811-.812V1040.1l.811-.812h3.507l.811.812v9.161Zm-2.695-1.623h1.883v-7.538h-1.883Z" transform="translate(-2543.9 -1039.287)" fill="#ed690e"/>
          <path id="Path_11137" data-name="Path 11137" d="M2590.068,1050.072h-3.505l-.812-.812V1040.1l.812-.812h3.505l.812.812v9.161Zm-2.694-1.623h1.882v-7.538h-1.882Z" transform="translate(-2579.901 -1039.287)" fill="#ed690e"/>
        </g>
        <g id="Group_4996" data-name="Group 4996" transform="translate(14.241 61.131)">
          <path id="Path_11138" data-name="Path 11138" d="M2548.218,1147.176h-3.507l-.811-.812v-6.823l.811-.812h3.507l.811.812v6.823Zm-2.695-1.624h1.883v-5.2h-1.883Z" transform="translate(-2543.9 -1138.729)" fill="#ed690e"/>
          <path id="Path_11139" data-name="Path 11139" d="M2590.068,1147.176h-3.505l-.812-.812v-6.823l.812-.812h3.505l.812.812v6.823Zm-2.694-1.624h1.882v-5.2h-1.882Z" transform="translate(-2579.901 -1138.729)" fill="#ed690e"/>
        </g>
        <rect id="Rectangle_728" data-name="Rectangle 728" width="1.94" height="1.624" transform="translate(12.199 58.957)" fill="#ed690e"/>
        <g id="Group_4997" data-name="Group 4997" transform="translate(46.24 38.11)">
          <path id="Path_11140" data-name="Path 11140" d="M2796.974,1001.465h-23.325l-.812-.812v-18.7l.172-.5,5.565-7.117.64-.312h12.195l.639.312,5.566,7.117.172.5v18.7Zm-22.514-1.623h21.7V982.236l-5.149-6.585h-11.4l-5.15,6.585Z" transform="translate(-2772.837 -974.027)" fill="#ed690e"/>
          <rect id="Rectangle_729" data-name="Rectangle 729" width="1.624" height="25.814" transform="translate(5.565 0.812)" fill="#ed690e"/>
          <rect id="Rectangle_730" data-name="Rectangle 730" width="1.624" height="25.46" transform="translate(17.76 0.812)" fill="#ed690e"/>
          <rect id="Rectangle_731" data-name="Rectangle 731" width="23.326" height="1.624" transform="translate(0.812 7.117)" fill="#ed690e"/>
          <path id="Path_11141" data-name="Path 11141" d="M2828.013,1047.826a.809.809,0,0,1-.622-.289l-11.418-13.578a.812.812,0,1,1,1.242-1.045l11.419,13.578a.812.812,0,0,1-.621,1.334Z" transform="translate(-2809.78 -1024.434)" fill="#ed690e"/>
          <path id="Path_11142" data-name="Path 11142" d="M2868.508,1061.293a.811.811,0,0,1-.62-.286l-5.011-5.908a.812.812,0,1,1,1.239-1.05l5.01,5.908a.811.811,0,0,1-.618,1.337Z" transform="translate(-2850.126 -1042.617)" fill="#ed690e"/>
        </g>
        <path id="Path_11143" data-name="Path 11143" d="M2539.356,1044.963a.812.812,0,0,1-.812-.812v-26.372H2525.1v26.372a.812.812,0,1,1-1.624,0v-27.184l.812-.812h15.064l.812.812v27.184A.812.812,0,0,1,2539.356,1044.963Z" transform="translate(-2512.093 -972.158)" fill="#ed690e"/>
        <path id="Path_11144" data-name="Path 11144" d="M2831.7,850.248a4.937,4.937,0,1,1,4.937-4.937A4.942,4.942,0,0,1,2831.7,850.248Zm0-8.249a3.313,3.313,0,1,0,3.313,3.313A3.316,3.316,0,0,0,2831.7,842Z" transform="translate(-2772.988 -820.946)" fill="#ed690e"/>
      </g>
    </g>
    <path id="Path_11145" data-name="Path 11145" d="M714.012,329.787a.812.812,0,0,1-.479-1.468q1.017-.742,2.048-1.473a.812.812,0,0,1,.939,1.325q-1.022.724-2.031,1.46A.809.809,0,0,1,714.012,329.787Zm289.1,0a.809.809,0,0,1-.477-.156c-.894-.651-1.816-1.311-2.742-1.963a.812.812,0,1,1,.934-1.328c.934.656,1.864,1.322,2.765,1.979a.812.812,0,0,1-.479,1.468Zm-284.272-3.405a.812.812,0,0,1-.459-1.482c.925-.633,1.874-1.271,2.821-1.9a.812.812,0,1,1,.895,1.355c-.94.621-1.881,1.254-2.8,1.882A.807.807,0,0,1,718.835,326.382Zm278.732-.489a.809.809,0,0,1-.455-.14c-.923-.627-1.868-1.256-2.806-1.87a.812.812,0,0,1,.888-1.359c.947.619,1.9,1.253,2.83,1.885a.812.812,0,0,1-.456,1.484ZM724.486,322.65a.812.812,0,0,1-.437-1.5c.955-.608,1.924-1.215,2.881-1.8a.812.812,0,0,1,.85,1.383q-1.441.885-2.86,1.789A.805.805,0,0,1,724.486,322.65Zm267.414-.465a.807.807,0,0,1-.433-.125c-.957-.6-1.922-1.2-2.867-1.777a.812.812,0,0,1,.844-1.387c.953.58,1.925,1.183,2.89,1.792a.812.812,0,0,1-.434,1.5ZM730.255,319.1a.812.812,0,0,1-.415-1.51q1.459-.864,2.938-1.71a.812.812,0,0,1,.806,1.41q-1.468.839-2.916,1.7A.808.808,0,0,1,730.255,319.1Zm255.861-.442a.809.809,0,0,1-.41-.112c-.969-.569-1.952-1.136-2.922-1.685a.812.812,0,0,1,.8-1.413c.977.553,1.968,1.125,2.945,1.7a.812.812,0,0,1-.412,1.512Zm-249.981-2.919a.812.812,0,0,1-.393-1.522q1.485-.819,2.989-1.618a.812.812,0,0,1,.762,1.434q-1.493.793-2.967,1.605A.807.807,0,0,1,736.135,315.743Zm244.088-.418a.8.8,0,0,1-.388-.1q-1.477-.807-2.973-1.594a.812.812,0,1,1,.756-1.436q1.507.794,3,1.606a.812.812,0,0,1-.39,1.524Zm-238.108-2.759a.812.812,0,0,1-.371-1.534q1.51-.773,3.037-1.526a.812.812,0,0,1,.718,1.456q-1.517.747-3.015,1.515A.808.808,0,0,1,742.115,312.566Zm232.115-.394a.813.813,0,0,1-.366-.087q-1.5-.762-3.021-1.5a.811.811,0,0,1,.712-1.459q1.531.747,3.043,1.513a.812.812,0,0,1-.368,1.536Zm-226.04-2.6a.812.812,0,0,1-.349-1.545q1.532-.727,3.081-1.434a.812.812,0,0,1,.674,1.477q-1.538.7-3.059,1.424A.806.806,0,0,1,748.19,309.571Zm219.955-.371a.811.811,0,0,1-.345-.077q-1.524-.716-3.065-1.413a.812.812,0,1,1,.669-1.479q1.552.7,3.086,1.422a.812.812,0,0,1-.346,1.547ZM754.35,306.759a.812.812,0,0,1-.327-1.555q1.553-.681,3.121-1.343a.812.812,0,0,1,.631,1.5q-1.558.657-3.1,1.334A.806.806,0,0,1,754.35,306.759Zm207.624-.348a.807.807,0,0,1-.323-.068q-1.544-.671-3.105-1.322a.812.812,0,1,1,.625-1.5q1.572.656,3.127,1.332a.812.812,0,0,1-.324,1.557ZM760.59,304.127a.812.812,0,0,1-.305-1.564q1.572-.637,3.159-1.253a.812.812,0,1,1,.588,1.513q-1.576.612-3.137,1.244A.809.809,0,0,1,760.59,304.127Zm195.134-.324a.811.811,0,0,1-.3-.059q-1.563-.626-3.142-1.233a.812.812,0,0,1,.583-1.516q1.589.611,3.163,1.241a.812.812,0,0,1-.3,1.566ZM766.9,301.674a.812.812,0,0,1-.284-1.573q1.589-.592,3.193-1.163a.812.812,0,1,1,.545,1.529q-1.593.568-3.171,1.155A.808.808,0,0,1,766.9,301.674Zm182.5-.3a.812.812,0,0,1-.281-.05q-1.58-.582-3.175-1.144a.812.812,0,0,1,.54-1.531q1.605.566,3.2,1.151a.812.812,0,0,1-.28,1.574ZM773.281,299.4a.812.812,0,0,1-.262-1.581q1.6-.546,3.223-1.074a.812.812,0,0,1,.5,1.543q-1.608.524-3.2,1.067A.806.806,0,0,1,773.281,299.4Zm169.734-.279a.809.809,0,0,1-.259-.043q-1.6-.537-3.206-1.055a.812.812,0,0,1,.5-1.546q1.621.521,3.227,1.063a.812.812,0,0,1-.259,1.582ZM779.72,297.3a.812.812,0,0,1-.241-1.587q1.619-.5,3.252-.986a.812.812,0,0,1,.46,1.557q-1.621.479-3.23.979A.808.808,0,0,1,779.72,297.3Zm156.848-.257a.816.816,0,0,1-.238-.036q-1.61-.494-3.234-.968a.812.812,0,1,1,.455-1.558q1.634.477,3.255.974a.812.812,0,0,1-.237,1.588Zm-150.354-1.664a.812.812,0,0,1-.219-1.593q1.632-.46,3.277-.9a.812.812,0,0,1,.418,1.569q-1.634.435-3.255.891A.8.8,0,0,1,786.215,295.382Zm143.853-.233a.813.813,0,0,1-.218-.03q-1.623-.45-3.258-.88a.812.812,0,0,1,.413-1.571q1.646.434,3.28.887a.812.812,0,0,1-.217,1.594Zm-137.31-1.512a.812.812,0,0,1-.2-1.6q1.644-.415,3.3-.81a.812.812,0,0,1,.377,1.579q-1.645.392-3.278.8A.817.817,0,0,1,792.758,293.637Zm130.76-.211a.8.8,0,0,1-.2-.024q-1.634-.407-3.281-.794a.812.812,0,0,1,.371-1.581q1.657.389,3.3.8a.812.812,0,0,1-.2,1.6Zm-124.173-1.36a.812.812,0,0,1-.177-1.6q1.654-.372,3.319-.723a.812.812,0,1,1,.335,1.589q-1.655.349-3.3.719A.818.818,0,0,1,799.346,292.065Zm117.581-.189a.819.819,0,0,1-.176-.019q-1.645-.364-3.3-.708a.812.812,0,0,1,.33-1.589q1.666.345,3.321.711a.812.812,0,0,1-.174,1.6Zm-110.954-1.21a.812.812,0,0,1-.156-1.608q1.663-.328,3.336-.637a.812.812,0,1,1,.294,1.6q-1.663.307-3.316.633A.793.793,0,0,1,805.972,290.666Zm104.323-.167a.828.828,0,0,1-.155-.015q-1.654-.321-3.318-.622a.812.812,0,0,1,.289-1.6q1.675.3,3.339.625a.812.812,0,0,1-.154,1.609Zm-97.663-1.059a.812.812,0,0,1-.135-1.612q1.671-.285,3.351-.551a.812.812,0,1,1,.253,1.6q-1.671.264-3.331.547A.809.809,0,0,1,812.632,289.44Zm91-.145a.824.824,0,0,1-.135-.011q-1.661-.279-3.333-.537a.812.812,0,1,1,.247-1.6q1.682.259,3.354.54a.812.812,0,0,1-.133,1.612Zm-84.309-.91a.812.812,0,0,1-.116-1.615q1.678-.243,3.365-.465a.812.812,0,1,1,.213,1.609q-1.677.221-3.344.463A.858.858,0,0,1,819.322,288.385Zm77.616-.123a.824.824,0,0,1-.115-.008q-1.668-.236-3.346-.452a.812.812,0,1,1,.207-1.61q1.688.217,3.366.454a.812.812,0,0,1-.113,1.616Zm-70.9-.763a.812.812,0,0,1-.095-1.618q1.683-.2,3.375-.38a.812.812,0,1,1,.172,1.614q-1.681.179-3.355.378A.909.909,0,0,1,826.036,287.5Zm64.185-.1a.75.75,0,0,1-.095-.006q-1.674-.194-3.356-.367a.812.812,0,1,1,.166-1.615q1.692.175,3.377.37a.812.812,0,0,1-.092,1.618Zm-57.451-.615a.812.812,0,0,1-.075-1.62q1.688-.159,3.384-.3a.812.812,0,1,1,.132,1.618q-1.685.137-3.363.295C832.821,286.782,832.8,286.783,832.77,286.783Zm50.713-.08c-.024,0-.049,0-.074,0q-1.678-.152-3.365-.284a.812.812,0,0,1,.127-1.619q1.7.133,3.384.285a.812.812,0,0,1-.072,1.62Zm-43.963-.469a.812.812,0,0,1-.055-1.622q1.692-.117,3.39-.212a.812.812,0,0,1,.092,1.621q-1.689.095-3.37.211Zm37.212-.058-.054,0q-1.681-.11-3.371-.2a.812.812,0,1,1,.087-1.621q1.7.091,3.39.2a.812.812,0,0,1-.052,1.622Zm-30.45-.323a.812.812,0,0,1-.035-1.623q1.693-.075,3.394-.129a.812.812,0,0,1,.052,1.623q-1.69.054-3.373.128Zm23.687-.038h-.034q-1.684-.068-3.374-.118a.812.812,0,0,1-.788-.835.8.8,0,0,1,.835-.788q1.7.049,3.394.119a.812.812,0,0,1-.033,1.623Zm-16.918-.179a.812.812,0,0,1-.016-1.623q1.695-.033,3.4-.046h.006a.812.812,0,0,1,.006,1.623q-1.692.013-3.377.046Zm10.157-.016h-.014q-1.684-.028-3.374-.036a.812.812,0,0,1,0-1.624h0q1.7.008,3.393.036a.812.812,0,0,1-.013,1.624Z" transform="translate(-8208.117 -10019.195)" fill="#ed690e"/>
    <g id="Group_5002" data-name="Group 5002" transform="translate(-7536.718 -9676.317)">
      <path id="Path_11146" data-name="Path 11146" d="M833.068,1068.022a.81.81,0,0,1-.622-.289l-13.407-15.943a.812.812,0,0,1,1.243-1.045l13.407,15.943a.812.812,0,0,1-.621,1.334Z" transform="translate(-762.281 -1002.237)" fill="#ed690e"/>
      <path id="Path_11147" data-name="Path 11147" d="M880.618,1089.592a.81.81,0,0,1-.62-.286l-5.884-6.937a.812.812,0,0,1,1.238-1.05l5.884,6.937a.812.812,0,0,1-.619,1.337Z" transform="translate(-809.657 -1028.539)" fill="#ed690e"/>
      <path id="Path_11148" data-name="Path 11148" d="M783.45,1136.691a.81.81,0,0,1-.619-.286l-5.884-6.937a.812.812,0,1,1,1.238-1.05l5.884,6.937a.812.812,0,0,1-.619,1.337Z" transform="translate(-726.071 -1069.055)" fill="#ed690e"/>
      <path id="Path_11149" data-name="Path 11149" d="M637.529,1081.262a.809.809,0,0,1-.622-.289L623.5,1065.029a.812.812,0,0,1,1.243-1.045l13.407,15.943a.812.812,0,0,1-.621,1.334Z" transform="translate(-594.073 -1013.626)" fill="#ed690e"/>
      <path id="Path_11150" data-name="Path 11150" d="M637.612,1047.8a.811.811,0,0,1-.618-.285l-7.623-8.925a.812.812,0,0,1,1.235-1.055l7.623,8.925a.812.812,0,0,1-.617,1.339Z" transform="translate(-599.121 -990.874)" fill="#ed690e"/>
      <path id="Path_11151" data-name="Path 11151" d="M535.186,1086.106a.811.811,0,0,1-.618-.285l-7.623-8.925a.812.812,0,0,1,1.235-1.054l7.623,8.925a.812.812,0,0,1-.617,1.339Z" transform="translate(-511.012 -1023.83)" fill="#ed690e"/>
      <path id="Path_11152" data-name="Path 11152" d="M500.544,835.513H414.956l-.812-.812V773.486l.812-.812h14.909a.812.812,0,1,1,0,1.623h-14.1V833.89h83.965V774.3h-14.1a.812.812,0,0,1,0-1.623h14.91l.812.812V834.7Z" transform="translate(-414.144 -763.282)" fill="#ed690e"/>
      <path id="Path_11153" data-name="Path 11153" d="M578.9,725.134H523.713l-.812-.812V706.29l.812-.812H578.9l.812.812v18.032Zm-54.374-1.624h53.563V707.1H524.524Z" transform="translate(-507.7 -705.478)" fill="#ed690e"/>
      <g id="Group_5000" data-name="Group 5000" transform="translate(25.461 6.197)">
        <path id="Path_11154" data-name="Path 11154" d="M600.75,753.107a9.22,9.22,0,0,0-1.244-.365c-.356-.088-.639-.166-.841-.234a1.273,1.273,0,0,1-.449-.245.391.391,0,0,1-.136-.314.56.56,0,0,1,.27-.49,1.753,1.753,0,0,1,.975-.211,3.241,3.241,0,0,1,.869.126,3.668,3.668,0,0,1,.866.37.2.2,0,0,0,.291-.1l.39-.962a.2.2,0,0,0-.076-.246,3.541,3.541,0,0,0-1.081-.466,5.031,5.031,0,0,0-1.251-.159,3.882,3.882,0,0,0-1.563.284,2.239,2.239,0,0,0-.992.792,1.986,1.986,0,0,0-.334,1.117,1.728,1.728,0,0,0,.388,1.177,2.236,2.236,0,0,0,.89.623,10.146,10.146,0,0,0,1.258.369c.352.086.635.165.841.234a1.243,1.243,0,0,1,.446.248.406.406,0,0,1,.138.322.52.52,0,0,1-.274.458,1.891,1.891,0,0,1-1,.205,3.466,3.466,0,0,1-1.129-.193,3.185,3.185,0,0,1-.945-.5.2.2,0,0,0-.311.076l-.428.962a.2.2,0,0,0,.052.236,3.329,3.329,0,0,0,1.212.622,5.32,5.32,0,0,0,1.55.227,3.919,3.919,0,0,0,1.567-.283,2.248,2.248,0,0,0,1-.788,1.961,1.961,0,0,0,.334-1.113,1.694,1.694,0,0,0-.389-1.163A2.3,2.3,0,0,0,600.75,753.107Z" transform="translate(-596.302 -749.812)" fill="#ed690e"/>
        <path id="Path_11155" data-name="Path 11155" d="M649.038,750.493h-5.657a.2.2,0,0,0-.2.2v1.047a.2.2,0,0,0,.2.2h2.007v5.416a.2.2,0,0,0,.2.2h1.238a.2.2,0,0,0,.2-.2v-5.416h2.007a.2.2,0,0,0,.2-.2V750.7A.2.2,0,0,0,649.038,750.493Z" transform="translate(-636.626 -750.398)" fill="#ed690e"/>
        <path id="Path_11156" data-name="Path 11156" d="M698.781,750.279a4.238,4.238,0,0,0-3.869,0,3.492,3.492,0,0,0-1.364,1.3,3.744,3.744,0,0,0,0,3.721,3.492,3.492,0,0,0,1.364,1.3,4.238,4.238,0,0,0,3.869,0,3.5,3.5,0,0,0,1.363-1.3,3.761,3.761,0,0,0,0-3.732A3.509,3.509,0,0,0,698.781,750.279Zm.205,3.164a2.213,2.213,0,0,1-.278,1.105,1.979,1.979,0,0,1-.761.761,2.36,2.36,0,0,1-2.2,0,1.98,1.98,0,0,1-.761-.761,2.333,2.333,0,0,1,0-2.21,1.981,1.981,0,0,1,.761-.761,2.347,2.347,0,0,1,2.2,0,1.979,1.979,0,0,1,.761.761A2.211,2.211,0,0,1,698.986,753.443Z" transform="translate(-679.53 -749.812)" fill="#ed690e"/>
        <path id="Path_11157" data-name="Path 11157" d="M765.317,755.258a2.323,2.323,0,0,0,.913-.782,2.469,2.469,0,0,0,.4-1.409,2.5,2.5,0,0,0-.375-1.377,2.4,2.4,0,0,0-1.074-.895,3.9,3.9,0,0,0-1.592-.3h-2.743a.2.2,0,0,0-.2.2v6.666a.2.2,0,0,0,.2.2h1.238a.2.2,0,0,0,.2-.2v-1.74h1.3l.156,0,1.3,1.859a.2.2,0,0,0,.166.087h1.333a.2.2,0,0,0,.166-.319Zm-3.029-3.312h1.245a1.72,1.72,0,0,1,1.1.3,1,1,0,0,1,.345.824,1.009,1.009,0,0,1-.346.83,1.7,1.7,0,0,1-1.1.3h-1.245Z" transform="translate(-737.673 -750.398)" fill="#ed690e"/>
        <path id="Path_11158" data-name="Path 11158" d="M822.467,756.121h-3.559v-1.432h3.016a.2.2,0,0,0,.2-.2v-1.019a.2.2,0,0,0-.2-.2h-3.016v-1.328h3.425a.2.2,0,0,0,.2-.2V750.7a.2.2,0,0,0-.2-.2h-4.867a.2.2,0,0,0-.2.2v6.666a.2.2,0,0,0,.2.2h5a.2.2,0,0,0,.2-.2v-1.038A.2.2,0,0,0,822.467,756.121Z" transform="translate(-786.379 -750.398)" fill="#ed690e"/>
      </g>
      <g id="Group_5001" data-name="Group 5001" transform="translate(20.302 9.341)">
        <path id="Path_11159" data-name="Path 11159" d="M561.166,774.034h-.913a.863.863,0,1,1,0-1.726h.913a.863.863,0,0,1,0,1.726Z" transform="translate(-559.39 -772.308)" fill="#ed690e"/>
        <path id="Path_11160" data-name="Path 11160" d="M875.746,774.034h-.913a.863.863,0,1,1,0-1.726h.913a.863.863,0,0,1,0,1.726Z" transform="translate(-830 -772.308)" fill="#ed690e"/>
      </g>
      <path id="Path_11161" data-name="Path 11161" d="M578.9,1009.455a.812.812,0,0,1-.812-.812v-31.7H524.524v31.7a.812.812,0,1,1-1.623,0V976.127l.812-.812H578.9l.812.812v32.516A.812.812,0,0,1,578.9,1009.455Z" transform="translate(-507.7 -937.599)" fill="#ed690e"/>
      <path id="Path_11162" data-name="Path 11162" d="M721.125,1009.455a.812.812,0,0,1-.812-.812V976.127a.812.812,0,1,1,1.623,0v32.516A.812.812,0,0,1,721.125,1009.455Z" transform="translate(-677.519 -937.599)" fill="#ed690e"/>
      <path id="Path_11163" data-name="Path 11163" d="M578.9,1030.178H523.713a.812.812,0,0,1,0-1.624H578.9a.812.812,0,0,1,0,1.624Z" transform="translate(-507.7 -983.396)" fill="#ed690e"/>
      <path id="Path_11164" data-name="Path 11164" d="M622.419,1055.252a.812.812,0,0,1-.812-.812v-25.075a.812.812,0,1,1,1.623,0v25.075A.812.812,0,0,1,622.419,1055.252Z" transform="translate(-592.609 -983.396)" fill="#ed690e"/>
      <path id="Path_11165" data-name="Path 11165" d="M819.831,1055.252a.812.812,0,0,1-.812-.812v-25.075a.812.812,0,1,1,1.623,0v25.075A.812.812,0,0,1,819.831,1055.252Z" transform="translate(-762.428 -983.396)" fill="#ed690e"/>
      <rect id="Rectangle_732" data-name="Rectangle 732" width="85.589" height="1.624" transform="translate(0.812 29.161)" fill="#ed690e"/>
      <path id="Path_11166" data-name="Path 11166" d="M831.166,886.7H799.3a.812.812,0,1,1,0-1.624h31.868a.812.812,0,1,1,0,1.624Z" transform="translate(-744.765 -859.969)" fill="#ed690e"/>
    </g>
    <g id="Group_5005" data-name="Group 5005" transform="translate(-7568.513 -9662.169)">
      <g id="Group_5003" data-name="Group 5003" transform="translate(415.525)">
        <path id="Path_11167" data-name="Path 11167" d="M3170.26,845.57c-6.129,0-10.75-5.576-10.75-12.97,0-12.808,9.7-25.369,10.11-25.9h1.28c.413.528,10.111,13.089,10.111,25.9C3181.01,839.995,3176.388,845.57,3170.26,845.57Zm0-37c-2.172,3.055-9.127,13.644-9.127,24.027,0,6.469,3.924,11.346,9.127,11.346s9.126-4.878,9.126-11.346C3179.386,822.208,3172.433,811.626,3170.26,808.573Z" transform="translate(-3159.51 -806.703)" fill="#2394ba"/>
        <path id="Path_11168" data-name="Path 11168" d="M3231.425,992.611a.812.812,0,0,1-.812-.812V956.254a.812.812,0,0,1,1.624,0V991.8A.812.812,0,0,1,3231.425,992.611Z" transform="translate(-3220.674 -934.652)" fill="#2394ba"/>
      </g>
      <g id="Group_5004" data-name="Group 5004">
        <path id="Path_11169" data-name="Path 11169" d="M197.418,845.57c-6.129,0-10.75-5.576-10.75-12.97,0-12.808,9.7-25.369,10.111-25.9h1.279c.413.528,10.111,13.089,10.111,25.9C208.169,839.995,203.547,845.57,197.418,845.57Zm0-37c-2.172,3.054-9.127,13.644-9.127,24.026,0,6.469,3.924,11.346,9.127,11.346s9.127-4.878,9.127-11.346C206.545,822.218,199.591,811.628,197.418,808.574Z" transform="translate(-186.668 -806.703)" fill="#2394ba"/>
        <path id="Path_11170" data-name="Path 11170" d="M258.584,992.611a.812.812,0,0,1-.812-.812V956.254a.812.812,0,0,1,1.623,0V991.8A.812.812,0,0,1,258.584,992.611Z" transform="translate(-247.834 -934.652)" fill="#2394ba"/>
      </g>
    </g>
    <g id="Group_5006" data-name="Group 5006" transform="translate(-7442.157 -9629.144)">
      <path id="Path_11171" data-name="Path 11171" d="M1132.871,1106.574a.812.812,0,0,1-.812-.812V1088.59a.812.812,0,0,1,1.624,0v17.173A.812.812,0,0,1,1132.871,1106.574Z" transform="translate(-1126.275 -1081.517)" fill="#2394ba"/>
      <path id="Path_11172" data-name="Path 11172" d="M1103.005,1050.8h-11.466l-.863-.863v-6.1l.863-.863h11.466l.863.863v6.1Zm-10.6-1.726h9.74v-4.37h-9.74Z" transform="translate(-1090.676 -1042.979)" fill="#2394ba"/>
    </g>
    <g id="Group_5007" data-name="Group 5007" transform="translate(-7216.054 -9720.15)">
      <path id="Path_11173" data-name="Path 11173" d="M2718.743,422.283c-.426-.4-10.432-10.01-10.432-19.412a10.991,10.991,0,1,1,21.982,0c0,9.323-10,19-10.429,19.41Zm.559-28.78a9.379,9.379,0,0,0-9.368,9.368c0,7.491,7.266,15.512,9.366,17.673,2.1-2.175,9.369-10.253,9.369-17.673A9.378,9.378,0,0,0,2719.3,393.5Z" transform="translate(-2708.311 -391.879)" fill="#2394ba"/>
      <path id="Path_11174" data-name="Path 11174" d="M2756.423,444.953a4.959,4.959,0,1,1,4.959-4.959A4.965,4.965,0,0,1,2756.423,444.953Zm0-8.3a3.336,3.336,0,1,0,3.335,3.336A3.34,3.34,0,0,0,2756.423,436.658Z" transform="translate(-2745.432 -429.002)" fill="#2394ba"/>
    </g>
    <g id="Group_5008" data-name="Group 5008" transform="translate(-7504.509 -9720.15)">
      <path id="Path_11175" data-name="Path 11175" d="M655.014,422.283c-.426-.4-10.432-10.01-10.432-19.412a10.991,10.991,0,1,1,21.982,0c0,9.323-10,19-10.43,19.41Zm.559-28.78a9.378,9.378,0,0,0-9.367,9.368c0,7.491,7.266,15.512,9.365,17.673,2.1-2.175,9.37-10.253,9.37-17.673A9.378,9.378,0,0,0,655.573,393.5Z" transform="translate(-644.582 -391.879)" fill="#2394ba"/>
      <path id="Path_11176" data-name="Path 11176" d="M692.7,444.953a4.959,4.959,0,1,1,4.959-4.959A4.965,4.965,0,0,1,692.7,444.953Zm0-8.3a3.336,3.336,0,1,0,3.336,3.336A3.34,3.34,0,0,0,692.7,436.658Z" transform="translate(-681.704 -429.002)" fill="#2394ba"/>
    </g>
  </g>
</svg>
