<svg xmlns="http://www.w3.org/2000/svg" viewBox="0 0 823.57 190"><defs><style>.cls-1{fill:#fff;}</style></defs><g id="Layer_2" data-name="Layer 2"><g id="Layer_3" data-name="Layer 3"><path class="cls-1" d="M95,0V95.74A66.93,66.93,0,0,0,136.82,74l17.69,15.84A90.64,90.64,0,0,1,95,119.6V190h79.17V0Z"/><path class="cls-1" d="M19.65,89.82,37.35,74A66.91,66.91,0,0,0,79.17,95.74V22.17H0V180.5H79.17V119.6A90.65,90.65,0,0,1,19.65,89.82Z"/><path class="cls-1" d="M322.36,158.34V106.68H268.07v51.66H243.82V33.77h24.25V83.84h54.29V33.77h24.42V158.34Z"/><path class="cls-1" d="M387.74,108.62,409,105.45c4.92-.7,6.5-3.16,6.5-6.15,0-6.14-4.74-11.24-14.58-11.24-10.19,0-15.81,6.5-16.52,14.06l-20.73-4.4c1.41-13.52,13.88-28.46,37.07-28.46,27.41,0,37.6,15.46,37.6,32.86v42.51a98,98,0,0,0,1.05,13.71H418a58.34,58.34,0,0,1-.88-10.37c-4.39,6.85-12.65,12.83-25.47,12.83-18.45,0-29.7-12.48-29.7-26C361.91,119.33,373.33,110.72,387.74,108.62Zm27.76,14.75v-3.86l-19.5,3c-6,.87-10.72,4.21-10.72,10.89,0,5.09,3.69,10,11.24,10C406.36,143.4,415.5,138.66,415.5,123.37Z"/><path class="cls-1" d="M467.66,29a14.41,14.41,0,1,1-14.41,14.58A14.39,14.39,0,0,1,467.66,29Zm-11.6,129.31V71.9h23.37v86.44Z"/><path class="cls-1" d="M512.86,129.87c.53,6.86,5.62,13.18,15.81,13.18,7.73,0,11.42-4,11.42-8.61,0-3.86-2.63-7-9.31-8.43l-11.42-2.64c-16.69-3.69-24.24-13.7-24.24-25.82,0-15.46,13.7-28.29,32.32-28.29,24.6,0,32.86,15.64,33.91,24.95l-19.5,4.39c-.7-5.09-4.39-11.59-14.23-11.59-6.15,0-11.07,3.69-11.07,8.6,0,4.22,3.16,6.86,7.91,7.74l12.3,2.63c17,3.51,25.65,13.88,25.65,26.53,0,14.06-10.9,28.46-33.56,28.46-26,0-35-16.86-36-26.7Z"/><path class="cls-1" d="M609.22,71.9h17.39V92.63H609.22v36.19c0,7.55,3.51,10,10.19,10a34,34,0,0,0,7.2-.7v19.33c-2.1.88-6.32,2.11-13.17,2.11-16.87,0-27.41-10-27.41-26.71V92.63H570.39V71.9h4.4c9.13,0,13.35-6,13.35-13.71V46.07h21.08Z"/><path class="cls-1" d="M726.44,115.12c0,26.53-19.51,45.85-45.33,45.85s-45.33-19.32-45.33-45.85c0-26.71,19.5-45.86,45.33-45.86S726.44,88.41,726.44,115.12Zm-23.37,0c0-16.34-10.54-24.6-22-24.6s-22,8.26-22,24.6c0,16.16,10.54,24.59,22,24.59S703.07,131.46,703.07,115.12Z"/><path class="cls-1" d="M788.26,108.26l35.31,50.08H794.93l-22.84-33-9.66,10.19v22.84H739.06V31.14h23.37v72.91L792.3,71.9h30.57Z"/></g></g></svg>