<svg width="500" height="150" viewBox="0 0 500 150" fill="none" xmlns="http://www.w3.org/2000/svg">
<g clip-path="url(#clip0_276_12)">
<path d="M103.96 58.2308C96.8205 53.3857 88.6009 49.8362 79.8029 47.799C68.7951 45.258 57.4247 44.0508 46.0243 44.2126H2.56786C1.8815 44.2126 1.22326 44.4457 0.737934 44.8606C0.252603 45.2756 -0.0200165 45.8383 -0.0200165 46.4251V147.723C-0.0205406 148.013 0.0458592 148.301 0.17548 148.569C0.3051 148.838 0.495385 149.082 0.735378 149.287C0.975371 149.493 1.26037 149.656 1.57413 149.767C1.88789 149.878 2.22424 149.935 2.5639 149.935L46.1519 150C57.6069 150.177 69.025 148.839 80.0023 146.035C88.8381 143.765 97.0399 139.979 104.107 134.908C110.396 130.273 115.315 124.432 118.462 117.863C121.616 111.115 123.199 103.907 123.124 96.641C123.242 89.1982 121.643 81.8084 118.418 74.8944C115.275 68.4079 110.309 62.6843 103.96 58.2308V58.2308ZM51.9379 127.752H29.2087V66.5251H51.9379C58.0566 66.4325 64.1545 67.1607 70.0095 68.683C74.6557 69.9053 78.9517 71.9444 82.6221 74.6694C85.932 77.2387 88.4891 80.4372 90.0868 84.0069C91.8485 88.0486 92.7152 92.3351 92.6428 96.6478C92.7125 101.063 91.8451 105.452 90.0828 109.602C88.4849 113.275 85.9182 116.583 82.5822 119.271C78.9491 122.088 74.6546 124.21 69.9856 125.496C64.1542 127.085 58.0576 127.848 51.9379 127.752V127.752Z" fill="white"/>
<path d="M261.225 44.2466H237.196C236.509 44.2466 235.851 44.4797 235.366 44.8946C234.88 45.3096 234.608 45.8723 234.608 46.4591V75.8591L164.558 44.4955C164.189 44.3308 163.779 44.2442 163.362 44.2432H139.333C138.647 44.2432 137.988 44.4763 137.503 44.8912C137.018 45.3061 136.745 45.8689 136.745 46.4557V147.757C136.745 148.344 137.018 148.906 137.503 149.321C137.988 149.736 138.647 149.969 139.333 149.969H163.362C164.048 149.969 164.707 149.736 165.192 149.321C165.677 148.906 165.95 148.344 165.95 147.757V72.075L234.612 102.634V147.76C234.612 148.347 234.884 148.91 235.37 149.325C235.855 149.74 236.513 149.973 237.2 149.973H261.229C261.915 149.973 262.573 149.74 263.059 149.325C263.544 148.91 263.817 148.347 263.817 147.76V46.4693C263.818 46.1776 263.752 45.8885 263.623 45.6187C263.493 45.3489 263.302 45.1036 263.061 44.897C262.821 44.6905 262.534 44.5266 262.219 44.415C261.904 44.3034 261.566 44.2461 261.225 44.2466V44.2466Z" fill="white"/>
<path d="M372.877 116.356C376.227 115.085 379.388 113.476 382.291 111.563C389.218 107.017 394.179 100.631 396.391 93.4092C397.526 89.721 398.092 85.9217 398.074 82.108C398.167 76.6924 397.003 71.3147 394.649 66.2864C392.356 61.5725 388.724 57.4222 384.082 54.2115C378.889 50.7328 372.918 48.2001 366.536 46.7694C358.589 44.9822 350.393 44.1356 342.176 44.2535H281.924C281.238 44.2535 280.58 44.4866 280.094 44.9015C279.609 45.3165 279.336 45.8792 279.336 46.466V147.767C279.336 148.354 279.609 148.917 280.094 149.332C280.58 149.747 281.238 149.98 281.924 149.98H305.957C306.644 149.98 307.302 149.747 307.787 149.332C308.273 148.917 308.545 148.354 308.545 147.767V121.129L341.642 121.19L363.175 148.977C363.411 149.281 363.732 149.531 364.108 149.703C364.485 149.876 364.905 149.966 365.332 149.966H394.732C395.203 149.966 395.665 149.857 396.068 149.649C396.471 149.442 396.801 149.145 397.021 148.789C397.241 148.433 397.344 148.033 397.318 147.632C397.292 147.23 397.138 146.842 396.874 146.509L372.877 116.356ZM367.573 82.108C367.617 84.5132 367.105 86.9022 366.066 89.1376C365.106 91.1367 363.586 92.9034 361.64 94.2819C359.369 95.8376 356.762 96.9959 353.968 97.691C350.34 98.5834 346.577 99.0085 342.802 98.9523H308.549V66.566H342.802C349.478 66.1324 356.135 67.5943 361.739 70.7251C363.701 72.0879 365.254 73.8315 366.268 75.8108C367.283 77.79 367.73 79.9478 367.573 82.1046V82.108Z" fill="white"/>
<path d="M411.891 34.7729C416.968 34.0911 422.046 33.5399 427.123 33.1195C429.463 32.8966 431.646 32.0036 433.317 30.5856C434.988 29.1676 436.049 27.308 436.327 25.3093C436.858 20.9752 437.546 16.6388 438.388 12.3002C438.523 11.5355 438.905 10.8181 439.49 10.2285C440.075 9.63898 440.841 9.20061 441.702 8.96267C446.409 7.9015 451.36 7.91914 456.057 9.0138C456.915 9.25797 457.677 9.70194 458.256 10.2957C458.835 10.8896 459.208 11.6097 459.335 12.3752C460.132 16.7161 460.778 21.0559 461.273 25.3945C461.533 27.3956 462.577 29.2625 464.236 30.6917C465.894 32.1209 468.07 33.0282 470.408 33.2661C475.478 33.7206 480.55 34.307 485.625 35.0252C486.519 35.1412 487.358 35.4676 488.047 35.9679C488.737 36.4682 489.25 37.1227 489.529 37.8581C490.77 41.8825 490.749 46.1154 489.469 50.1309C489.183 50.8646 488.664 51.5158 487.969 52.0114C487.275 52.507 486.433 52.8273 485.537 52.9365C480.46 53.6184 475.383 54.1707 470.309 54.5934C467.968 54.8142 465.784 55.7061 464.112 57.1237C462.44 58.5413 461.379 60.4011 461.101 62.4002C460.57 66.7388 459.884 71.0752 459.044 75.4092C458.909 76.1738 458.527 76.891 457.942 77.4805C457.356 78.07 456.591 78.5085 455.73 78.7468C451.023 79.8095 446.071 79.7919 441.375 78.6956C440.517 78.4526 439.755 78.0095 439.175 77.4162C438.595 76.823 438.22 76.1031 438.093 75.3377V75.3377C437.296 70.9968 436.65 66.6559 436.155 62.315C435.896 60.3146 434.853 58.4481 433.194 57.0194C431.536 55.5907 429.361 54.684 427.024 54.4467C421.949 53.9922 416.877 53.4047 411.807 52.6842L408.43 52.1865L409.068 54.5218C410.159 58.1243 411.612 61.6396 413.41 65.0286C415.808 68.7263 419.357 71.7846 423.662 73.865C427.612 75.4324 431.713 76.7042 435.92 77.6661C436.779 77.9449 437.537 78.411 438.12 79.018C438.702 79.6251 439.089 80.3519 439.242 81.1263C439.401 81.849 439.561 82.5752 439.724 83.2979C439.971 84.1994 440.433 85.0475 441.082 85.789C441.73 86.5305 442.551 87.1494 443.492 87.607C445.074 88.1915 446.777 88.4962 448.5 88.5026C450.223 88.5091 451.93 88.2172 453.517 87.6445C454.463 87.193 455.29 86.5794 455.946 85.842C456.602 85.1046 457.073 84.2594 457.329 83.3592C457.497 82.6365 457.664 81.9172 457.828 81.1945C457.988 80.421 458.382 79.6968 458.971 79.0939C459.56 78.4911 460.323 78.0306 461.185 77.7581C465.4 76.8258 469.514 75.5836 473.479 74.0456C477.805 71.9949 481.383 68.9616 483.818 65.2809C485.651 61.9039 487.137 58.3976 488.261 54.8013V54.8013C488.587 54.0669 489.132 53.4182 489.842 52.9195C490.552 52.4208 491.402 52.0894 492.308 51.9581C493.153 51.8263 493.999 51.6888 494.844 51.5456C495.782 51.3305 496.645 50.925 497.36 50.3635C498.075 49.802 498.621 49.1012 498.951 48.3206C499.634 46.9691 499.991 45.5133 499.998 44.0409C500.006 42.5686 499.664 41.1102 498.995 39.7536C498.671 38.9708 498.131 38.2662 497.421 37.6996C496.711 37.1329 495.852 36.7207 494.916 36.4979C494.071 36.3513 493.225 36.2115 492.38 36.0684C491.474 35.9328 490.627 35.5962 489.921 35.0924C489.216 34.5887 488.678 33.9354 488.36 33.1979V33.1979C487.272 29.5932 485.817 26.0764 484.014 22.6877C481.616 18.9898 478.068 15.9315 473.762 13.8513C469.813 12.2854 465.713 11.0148 461.508 10.0536C460.648 9.77493 459.889 9.30853 459.305 8.70083C458.722 8.09313 458.335 7.36534 458.183 6.58994C458.023 5.86722 457.868 5.14449 457.7 4.41835C457.447 3.61714 456.972 2.87977 456.316 2.26858C455.659 1.65739 454.84 1.19036 453.928 0.906991C452.346 0.322461 450.643 0.0177798 448.92 0.0113349C447.197 0.00488997 445.49 0.296809 443.903 0.869486C442.988 1.1469 442.165 1.60868 441.502 2.21573C440.84 2.82277 440.359 3.55724 440.099 4.35699C439.926 5.07972 439.759 5.80245 439.596 6.52518C439.437 7.2988 439.043 8.02314 438.454 8.62606C437.864 9.22897 437.101 9.6894 436.239 9.96153C432.023 10.8942 427.91 12.1375 423.945 13.6774C419.618 15.7257 416.041 18.7597 413.61 22.4422C411.777 25.8181 410.289 29.3232 409.163 32.9184L408.501 35.2502L411.891 34.7729Z" fill="white"/>
</g>
<defs>
<clipPath id="clip0_276_12">
<rect width="500" height="150" fill="white"/>
</clipPath>
</defs>
</svg>
