<svg xmlns="http://www.w3.org/2000/svg" width="35.962" height="35.962" viewBox="0 0 35.962 35.962">
  <g id="medical_herbs-formulation" data-name="medical herbs-formulation" transform="translate(0.75 0.75)">
    <g id="Group_5822" data-name="Group 5822" transform="translate(0 11.268)">
      <path id="Path_11511" data-name="Path 11511" d="M553.68,444c0,1.667-5.359,3.335-13.34,3.335S527,445.667,527,444" transform="translate(-523.109 -439.704)" fill="none" stroke="#2394ba" stroke-linecap="round" stroke-linejoin="round" stroke-width="1.5"/>
      <path id="Path_11512" data-name="Path 11512" d="M522.779,437.034c-1.758.772-2.779,1.765-2.779,2.978,0,0,0,13.34,9.449,16.675l1.307,1.742a1.665,1.665,0,0,0,1.019.638,37.442,37.442,0,0,0,10.912,0,1.668,1.668,0,0,0,1.019-.638l1.307-1.742c9.449-3.335,9.449-16.675,9.449-16.675,0-1.659-1.91-2.906-5-3.74" transform="translate(-520 -436.272)" fill="none" stroke="#2394ba" stroke-linecap="round" stroke-linejoin="round" stroke-width="1.5"/>
      <g id="Group_5821" data-name="Group 5821" transform="translate(7.226 19.303)">
        <path id="Path_11513" data-name="Path 11513" d="M533,471a13.488,13.488,0,0,0,5.558,1.112" transform="translate(-533 -471)" fill="none" stroke="#2394ba" stroke-linecap="round" stroke-linejoin="round" stroke-width="1.5"/>
        <path id="Path_11514" data-name="Path 11514" d="M564.558,471A13.488,13.488,0,0,1,559,472.112" transform="translate(-544.548 -471)" fill="none" stroke="#2394ba" stroke-linecap="round" stroke-linejoin="round" stroke-width="1.5"/>
      </g>
    </g>
    <g id="Group_5824" data-name="Group 5824" transform="translate(4.555)">
      <path id="Path_11515" data-name="Path 11515" d="M552,423.779A5.582,5.582,0,0,0,555.335,421s2.779,5.558-.556,9.449" transform="translate(-538.769 -418.221)" fill="none" stroke="#2394ba" stroke-linecap="round" stroke-linejoin="round" stroke-width="1.5"/>
      <g id="Group_5823" data-name="Group 5823">
        <path id="Path_11516" data-name="Path 11516" d="M534.757,424.337c4.447,3.891,4.8,7.853,4.8,7.853s4.1-3.406,1.318-7.853c-2.479-3.966-9.338-4.788-11.321-8.337-1.477,3.976-2.57,11.418,1.316,14.452" transform="translate(-528.196 -416)" fill="none" stroke="#2394ba" stroke-linecap="round" stroke-linejoin="round" stroke-width="1.5"/>
      </g>
    </g>
    <g id="Group_5825" data-name="Group 5825" transform="translate(21.677)">
      <line id="Line_105" data-name="Line 105" x1="2.921" y2="7.789" transform="translate(6.114 7.774)" fill="none" stroke="#2394ba" stroke-linecap="round" stroke-linejoin="round" stroke-width="1.5"/>
      <path id="Path_11517" data-name="Path 11517" d="M566.782,423.62a3.908,3.908,0,1,0-2.019-1.425L559,432.675" transform="translate(-559 -416)" fill="none" stroke="#2394ba" stroke-linecap="round" stroke-linejoin="round" stroke-width="1.5"/>
    </g>
  </g>
</svg>
