<svg xmlns="http://www.w3.org/2000/svg" width="432.522" height="420" viewBox="0 0 432.522 420"><g transform="translate(-383 -62)"><g transform="translate(383 62)"><path d="M1568.688,704.084l-38.258-13.627a18.213,18.213,0,0,1-11.014-23.2h0a18.214,18.214,0,0,1,23.2-11.014l38.258,13.628a18.213,18.213,0,0,1,11.014,23.2h0A18.212,18.212,0,0,1,1568.688,704.084Z" transform="translate(-1514.196 -432.76)" fill="#ed690e"/><path d="M1935.843,310.562c-18.7,8.171-26.251,31.485-16.858,52.073.273.6.56,1.184.854,1.764,22.084-11.4,43.1-23.738,65.2-34.655C1974.822,311.408,1953.517,302.841,1935.843,310.562Z" transform="translate(-1656.903 -307.723)" fill="#ed690e"/><path d="M1636.119,395.714c.154-.786.285-1.571.4-2.355-18.991-1.971-50.207-7.069-50.207-7.069s-1.589,29.181-2.142,48.626C1608.127,438.773,1631.036,421.788,1636.119,395.714Z" transform="translate(-1537.875 -335.995)" fill="#ed690e"/><path d="M2104.852,782.386c.463.115.925.216,1.387.309,2.138-9.992,9.545-32.348,9.545-32.348s-23.055.667-32.668.039C2080.115,764.494,2089.521,778.6,2104.852,782.386Z" transform="translate(-1717.219 -467)" fill="#ed690e"/><path d="M1883.415,948.406a7.529,7.529,0,0,1-7.775,7.255H1646.634a7.529,7.529,0,0,1-7.775-7.255h0a7.529,7.529,0,0,1,7.775-7.256h229.007a7.529,7.529,0,0,1,7.775,7.256Z" transform="translate(-1557.554 -535.661)" fill="#c9d9e3" opacity="0.2"/><path d="M1827.7,918.776a17.862,17.862,0,1,1-16.423-19.193A17.862,17.862,0,0,1,1827.7,918.776Z" transform="translate(-1612.672 -520.683)" fill="#076a8b"/><path d="M1957.084,508.456l-16.707-2.57,13.953-21.481,3.121-9.731,3.678-2.428,4.4,3.836,7.833-.245,4.651-2.081,4.59,3.672-7.038,5.753-10.587,6.732Z" transform="translate(-1666.055 -366.927)" fill="#ff8275"/><path d="M1820.738,436.657l-4.386-5.385.16-16.236,6.815,2.961Z" transform="translate(-1621.424 -346.34)" fill="#3d3b78"/><path d="M1798.734,484.726l32.515,2.207s7.1-1.46,16.348,8.089c5.683,5.864,15.78,13.392,31.386,24.224,0,0,6.652,5.459,1.41,14.619-3.414,5.967-18.3.8-18.3.8l-18.359-6.61.092,25.244,3.121,36.352-67.76,1.136,2.309-42.353-9.547,8.812s-12.485-1.036-8.294-16.9c4.271-16.152,7.937-34.006,11.409-40.941C1780.24,486.14,1792.8,484.562,1798.734,484.726Z" transform="translate(-1602.151 -371.414)" fill="#2394ba"/><path d="M1849.994,427.877c1.612-7.6,1.8-18.4-13.836-21.044,0,0-9.682-1.645-14.792-2.688-10.029-2.051-14.335,10.293-5.667,13.822,1.682.689,10.158,22.037,10.127,23.387,3.53-1.346,4.356,5.544,4.24,6.773l8.617-3.79c4.453-.055,7.553-.034,8.625-3.46Z" transform="translate(-1619.512 -342.339)" fill="#3d3b78"/><path d="M1848.13,436.167l-3.3,29.919-12.935-.554-9.547-2.08,2.855-9.119a10.354,10.354,0,0,1-6.453-6.476c-1.342-3.58,2.279-23.35,2.279-23.35s8.18,2.563,10.789,3.326C1832.5,435.49,1848.13,436.167,1848.13,436.167Z" transform="translate(-1622.181 -349.747)" fill="#ff8275"/><path d="M1854.8,794.444l-20.284-2.765-15.2-71-11.535-50.752-3.472-1.153-24.963,51.641-12.674,64.238-20.073-3.427,4.367-8.637,2.879-62.839,19.514-61.355,67.6-.954,6.443,79.614,3.475,57.109Z" transform="translate(-1596.323 -429.97)" fill="#146079"/><path d="M1863.861,450.026c-.468,2.773-3.065,6.507-6.9,5.859l.306-1.81c.934-5.526-1.008-17.717-1.008-17.717.469-2.773,2.5-4.736,4.607-4.38h0c4.217.712,5.495,3.235,5.026,6.008Z" transform="translate(-1635.787 -352.421)" fill="#3d3b78"/><rect width="22.347" height="5.685" transform="translate(183.81 162.636) rotate(-87.513)" fill="#1d7e9f"/><path d="M1814.488,680.217l2-5.322,9.267,3.471-1.99,5.321Z" transform="translate(-1620.754 -439.849)" fill="#10485a"/><path d="M1711.388,563.535l-1.842,17.666-22.7-11.2-13.708.245-3.611-1.714-5.447-1.224-1.224-4.651,7.1-.49,7.344-2.693,1.714-4.651,3.427-.49,5.239,3.431Z" transform="translate(-1566.188 -396.466)" fill="#ff8275"/><path d="M1941.825,498.505c-4.774,6.61-23.868,26.805-23.868,26.805L1916,539.141s15.643,11.351,22.031-1.958c5.053-10.527,2.018-4.48,14.075-28.212Z" transform="translate(-1657.282 -376.376)" fill="#2394ba"/><path d="M1847.945,891.27l-151-18.224a10.759,10.759,0,0,1-9.365-11.936h0a10.759,10.759,0,0,1,11.936-9.365l151,18.224a10.759,10.759,0,0,1,9.365,11.936h0A10.759,10.759,0,0,1,1847.945,891.27Z" transform="translate(-1575.057 -503.46)" fill="#c6c5c5"/><path d="M1715.224,545.2l25.336,4.9,16.156-36.107,9.18,40.759s-9.3,12.037-12.851,16.156c-4.6,5.334-10.771,1.714-10.771,1.714l-27.417-12.362Z" transform="translate(-1584.902 -381.949)" fill="#2394ba"/><rect width="4.187" height="20.785" transform="translate(130.383 18.223) rotate(-32.007)" fill="#a9d2e7"/><rect width="4.188" height="20.784" transform="translate(304.946 251.491) rotate(-41.531)" fill="#a9d2e7"/><rect width="4.187" height="19.802" transform="translate(0 143.993) rotate(-68.749)" fill="#a9d2e7"/><rect width="26.1" height="4.186" transform="translate(359.154 145.432) rotate(-45)" fill="#a9d2e7"/><rect width="4.188" height="20.784" transform="translate(120.742 282.986) rotate(-50.626)" fill="#a9d2e7"/><rect width="20.784" height="4.187" transform="matrix(0.763, -0.646, 0.646, 0.763, 72.031, 205.379)" fill="#a9d2e7"/><rect width="21.629" height="4.187" transform="translate(410.493 215.595) rotate(-10.231)" fill="#a9d2e7"/><path d="M2006.715,421.806a15.782,15.782,0,1,1-14.51-16.958A15.781,15.781,0,0,1,2006.715,421.806Z" transform="translate(-1678.585 -342.656)" fill="#2394ba"/><rect width="53.159" height="30.565" transform="translate(318.627 176.493) rotate(30)" fill="#2394ba"/><rect width="18.759" height="19.263" transform="translate(99.637 120.192) rotate(38.691)" fill="#2394ba"/><path d="M1978.983,831l-12.443-34.539,36.543,7.572Zm-5.971-28.922,7.528,20.9,14.582-16.317Z" transform="translate(-1675.469 -483.595)" fill="#a9d2e7"/><path d="M1597.337,814.786l-19.408-16.554,16.554-19.41,19.408,16.554Zm-13.506-17.025,13.039,11.121,11.12-13.036-13.038-11.121Z" transform="translate(-1535.628 -477.247)" fill="#a9d2e7"/></g></g></svg>