<svg xmlns="http://www.w3.org/2000/svg" width="426.2" height="400" viewBox="0 0 426.2 400"><g transform="translate(-267 -190)"><path d="M853.18,520.507a38.439,38.439,0,1,1-38.439-38.44A38.437,38.437,0,0,1,853.18,520.507Z" transform="translate(-185.752 -102.297)" fill="#d9761a"/><g transform="translate(373.857 223.788)"><path d="M416.835,356.061h51.571v9.147c0,18.136,19.815,21.084,19.815,21.084H434.1c-12.538,0-17.269-6.887-17.269-21.952Z" transform="translate(-417.835 -279.037)" fill="#fff"/><path d="M437.312,331.788h71.237V248.995c0-21.09,23.858-25.684,23.858-25.684h-59c-14.583,0-27.094,9.175-27.094,26.69v68.908a30.12,30.12,0,0,1-.42,6.363C444.479,330.322,437.312,331.788,437.312,331.788Z" transform="translate(-424.968 -223.311)" fill="#ccc"/><path d="M581.08,280.217H513.5V248.995c0-21.09-18.943-25.684-18.943-25.684h61c15.07,0,25.516,9.175,25.516,26.69Z" transform="translate(-447.707 -223.311)" fill="#fff"/><rect width="19.561" height="5.335" transform="translate(80.024 12.448)" fill="#ccc"/><rect width="23.118" height="5.335" transform="translate(80.024 26.675)" fill="#ccc"/><rect width="7.113" height="5.335" transform="translate(112.033 26.675)" fill="#ccc"/><rect width="7.113" height="5.335" transform="translate(112.033 40.901)" fill="#ccc"/><rect width="7.113" height="5.335" transform="translate(112.033 12.448)" fill="#ccc"/><rect width="14.226" height="5.335" transform="translate(80.024 40.901)" fill="#ccc"/></g><path d="M603.5,568.211c-3.062,15.5-8.1,22.138-17.934,27.053-10.945,5.472-8.817,17.026-8.817,17.026,0,5.041,4.458,53.83,4.458,53.83L472.747,666.1l1.846-115L615.966,416.162,610.46,546.508Z" transform="translate(-65.184 -76.12)" fill="#fccda6"/><path d="M601.035,317.711H511.579c-12.083,0-20.994,5.685-20.994,16.345v99.618L530.97,531.02l68.836.552c12.08,0,24.152-9.815,24.152-20.478V334.056C623.958,323.4,613.115,317.711,601.035,317.711Z" transform="translate(-72.27 -37.018)" fill="#fff"/><g transform="translate(442.955 329.968)"><path d="M621.055,444.248a44.8,44.8,0,1,1-44.8-44.8A44.8,44.8,0,0,1,621.055,444.248Z" transform="translate(-531.459 -399.45)" fill="#ed690e"/><path d="M592.14,481l-19.832-18.317,4.826-5.225,14.088,13.012,19.665-25.8,5.658,4.312Z" transform="translate(-547.683 -417.407)" fill="#fff"/></g><g transform="translate(645.048 325.214)"><rect width="5.335" height="19.249" transform="translate(6.96 0)" fill="#3180fd"/><rect width="19.252" height="5.335" transform="translate(0 6.957)" fill="#2394ba"/></g><path d="M371.8,300.858,356.187,285.24,371.8,269.623l15.616,15.617Zm-8.07-15.618,8.07,8.072,8.072-8.072-8.072-8.071Z" transform="translate(-18.889 -17.917)" fill="#2394ba"/><path d="M813.555,676.042l-15.614-15.616,15.614-15.619,15.614,15.619Zm-8.07-15.616,8.07,8.072,8.07-8.072-8.07-8.072Z" transform="translate(-194.346 -166.935)" fill="#2394ba"/><path d="M379.465,612.1a16.7,16.7,0,0,1-16.7,16.7H312.581a16.7,16.7,0,0,1-16.7-16.7v-.389a16.7,16.7,0,0,1,16.7-16.7h50.188a16.7,16.7,0,0,1,16.7,16.7Zm-5.335-.389a11.363,11.363,0,0,0-11.361-11.365H312.581a11.363,11.363,0,0,0-11.361,11.365v.389a11.363,11.363,0,0,0,11.361,11.364h50.188A11.363,11.363,0,0,0,374.13,612.1Z" transform="translate(5.063 -147.156)" fill="#2394ba"/><path d="M725.642,197.492H690.076a15.116,15.116,0,0,1,0-30.231h35.566a15.116,15.116,0,0,1,0,30.231Zm-35.566-24.9a9.781,9.781,0,0,0,0,19.561h35.566a9.781,9.781,0,1,0,0-19.561Z" transform="translate(-145.5 22.739)" fill="#2394ba"/><rect width="30.231" height="5.335" transform="translate(605.038 358.939)" fill="#2394ba"/><rect width="39.123" height="5.335" transform="translate(560.58 534.992)" fill="#2394ba"/><rect width="55.127" height="5.335" transform="translate(286.721 502.982)" fill="#2394ba"/><path d="M546.851,621.561c4,7.113,6.242,13.22,6.242,22.17,0,4.995-.7,9.84-2.013,11.618H626c13.346,0,22.079-7.7,22.079-19.731V621.561Z" transform="translate(-94.617 -157.702)" fill="#006384"/><path d="M625.736,329.017c0-12.029-11.514-14.256-23.544-14.256h-92.6c-12.031,0-19.006,2.227-19.006,14.256V336.1H625.736Z" transform="translate(-72.27 -35.846)" fill="#006384"/><g transform="translate(479.668 286.003)" opacity="0.61"><rect width="17.859" height="5.335" transform="translate(0 0)" fill="#8a7fad"/></g><path d="M690.1,507.035a14.17,14.17,0,0,1,6.651-18.907l11.32-6.532a14.17,14.17,0,0,1,18.9,6.651h0a14.164,14.164,0,0,1-6.651,18.894L709,513.679a14.161,14.161,0,0,1-18.894-6.644Z" transform="translate(-150.961 -101.557)" fill="#fab983"/><path d="M690.58,555.892a14.171,14.171,0,0,1,6.651-18.9l11.319-6.531a14.165,14.165,0,0,1,18.9,6.648h0A14.163,14.163,0,0,1,720.8,556l-11.318,6.537a14.167,14.167,0,0,1-18.9-6.65Z" transform="translate(-151.15 -120.963)" fill="#fab983"/><path d="M696.594,602.142a14.168,14.168,0,0,1,6.648-18.9l11.324-6.531a14.164,14.164,0,0,1,18.9,6.648h0a14.171,14.171,0,0,1-6.65,18.9l-11.323,6.536a14.16,14.16,0,0,1-18.9-6.649Z" transform="translate(-153.537 -139.332)" fill="#fab983"/><path d="M747.424,406.47a14.583,14.583,0,0,0-19.262-6.65l-8.7,5.149V438.1l20.944-12.733C747.463,421.983,750.807,413.523,747.424,406.47Z" transform="translate(-163.178 -69.075)" fill="#fab983"/><g transform="translate(523.236 248.685)"><path d="M773.112,323.3a14.1,14.1,0,0,1-13.985,14.219H678.62A14.1,14.1,0,0,1,664.635,323.3V278.831a14.1,14.1,0,0,1,13.985-14.22h80.506a14.1,14.1,0,0,1,13.985,14.22Z" transform="translate(-664.635 -264.611)" fill="#2394ba"/><path d="M787.413,339.517a11.144,11.144,0,1,1-11.144-11.141A11.144,11.144,0,0,1,787.413,339.517Z" transform="translate(-704.548 -289.937)" fill="#a4d600"/><path d="M812.367,339.517a11.144,11.144,0,1,1-11.146-11.141A11.142,11.142,0,0,1,812.367,339.517Z" transform="translate(-714.459 -289.937)" fill="#ffecdd"/><rect width="109" height="8.892" transform="translate(-0.522 19.562)" fill="#525252"/><rect width="28.453" height="5.335" transform="translate(14.226 49.793)" fill="#7fd1fc"/></g><path d="M896.753,543a38.1,38.1,0,1,1-38.1-38.094A38.1,38.1,0,0,1,896.753,543Z" transform="translate(-203.553 -110.91)" fill="#f88114"/><g transform="translate(267 311.949)"><path d="M266.377,406.078a4.447,4.447,0,0,1-4.015-6.35L275.445,372.1a4.446,4.446,0,1,1,8.035,3.807L270.4,403.535A4.446,4.446,0,0,1,266.377,406.078Z" transform="translate(-248.452 -369.561)" fill="#514f74"/><path d="M381.854,406.078a4.448,4.448,0,0,1-4.124-2.78l-11.166-27.625a4.446,4.446,0,1,1,8.243-3.332l11.167,27.625a4.447,4.447,0,0,1-4.12,6.113Z" transform="translate(-289.881 -369.561)" fill="#514f74"/><path d="M337.3,501.687H259.98l-13.612-73.013H348.981Z" transform="translate(-242.27 -393.039)" fill="#a4d600"/><path d="M352.053,429.506a8.071,8.071,0,0,1-8.077,8.072H247.647a8.073,8.073,0,0,1-8.077-8.072V424a8.076,8.076,0,0,1,8.077-8.075h96.329A8.074,8.074,0,0,1,352.053,424Z" transform="translate(-239.57 -387.976)" fill="#ed690e"/><rect width="5.335" height="24.896" transform="translate(30.391 62.995)" fill="#fff"/><rect width="5.335" height="24.896" transform="translate(51.731 62.995)" fill="#fff"/><rect width="5.335" height="24.896" transform="translate(71.292 62.995)" fill="#fff"/></g><path d="M497.221,526.114s-3.743-1.593-4.529-7.777a296.881,296.881,0,0,0-5.481-30.075c-3.6-15.473-2.806-16.506-10.8-21.473-8.231-5.111-18.418-1.871-18.418-1.871l.152,95.431c2.868,37.851,10.441,49.3,10.441,49.3l.118,37.37s3.109-13.129,15.236-27.724c5.323-6.406,17.306-12.264,25.042-18.781,17-14.308,13.443-35.33,13.443-35.33C522.424,547.527,512.953,531.952,497.221,526.114Z" transform="translate(-59.324 -95.083)" fill="#fab983"/><text transform="translate(656 442)" fill="#fff" font-size="34" font-family="Helvetica"><tspan x="-21.731" y="0">Rp</tspan></text></g></svg>