<svg xmlns="http://www.w3.org/2000/svg" width="357.695" height="263.6" viewBox="0 0 357.695 263.6">
  <g id="Group_7736" data-name="Group 7736" transform="translate(5099.583 16756.709) rotate(-30)" opacity="0.1">
    <path id="Rectangle_1145" data-name="Rectangle 1145" d="M14.382,0h4.494a.9.9,0,0,1,0,1.8H14.382a.9.9,0,0,1,0-1.8ZM23.37,0h4.494a.9.9,0,0,1,0,1.8H23.37a.9.9,0,1,1,0-1.8Zm8.989,0h4.494a.9.9,0,1,1,0,1.8H32.359a.9.9,0,0,1,0-1.8Zm8.989,0h4.494a.9.9,0,1,1,0,1.8H41.347a.9.9,0,1,1,0-1.8Zm8.989,0H54.83a.9.9,0,1,1,0,1.8H50.336a.9.9,0,0,1,0-1.8Zm8.989,0h4.494a.9.9,0,1,1,0,1.8H59.324a.9.9,0,0,1,0-1.8Zm8.989,0h4.494a.9.9,0,0,1,0,1.8H68.313a.9.9,0,0,1,0-1.8ZM77.3,0H81.8a.9.9,0,0,1,0,1.8H77.3a.9.9,0,0,1,0-1.8ZM86.29,0h4.494a.9.9,0,0,1,0,1.8H86.29a.9.9,0,0,1,0-1.8Zm8.989,0h4.494a.9.9,0,0,1,0,1.8H95.278a.9.9,0,0,1,0-1.8Zm8.989,0h4.494a.9.9,0,0,1,0,1.8h-4.494a.9.9,0,0,1,0-1.8Zm8.989,0h4.494a.9.9,0,0,1,0,1.8h-4.494a.9.9,0,0,1,0-1.8Zm8.989,0h4.494a.9.9,0,0,1,0,1.8h-4.494a.9.9,0,0,1,0-1.8Zm8.989,0h4.494a.9.9,0,0,1,0,1.8h-4.494a.9.9,0,0,1,0-1.8Zm8.989,0h4.494a.9.9,0,0,1,0,1.8h-4.494a.9.9,0,0,1,0-1.8Zm8.989,0H153.7a.9.9,0,0,1,0,1.8h-4.494a.9.9,0,0,1,0-1.8ZM158.2,0h4.494a.9.9,0,0,1,0,1.8H158.2a.9.9,0,0,1,0-1.8Zm8.989,0h4.494a.9.9,0,0,1,0,1.8h-4.494a.9.9,0,0,1,0-1.8Zm8.989,0h4.494a.9.9,0,0,1,0,1.8h-4.494a.9.9,0,0,1,0-1.8Zm8.989,0h4.494a.9.9,0,0,1,0,1.8h-4.494a.9.9,0,0,1,0-1.8Zm8.989,0h4.494a.9.9,0,0,1,0,1.8h-4.494a.9.9,0,0,1,0-1.8Zm8.989,0h4.494a.9.9,0,0,1,0,1.8h-4.494a.9.9,0,0,1,0-1.8Zm8.989,0h4.494a.9.9,0,0,1,0,1.8h-4.494a.9.9,0,0,1,0-1.8Zm8.989,0h4.494a.9.9,0,0,1,0,1.8h-4.494a.9.9,0,0,1,0-1.8Zm8.989,0H234.6a.9.9,0,0,1,0,1.8h-4.494a.9.9,0,0,1,0-1.8Zm8.989,0h4.494a.9.9,0,0,1,0,1.8h-4.494a.9.9,0,1,1,0-1.8Zm8.989,0h4.494a.9.9,0,0,1,0,1.8h-4.494a.9.9,0,0,1,0-1.8Zm8.989,0h4.494a.9.9,0,0,1,0,1.8h-4.494a.9.9,0,1,1,0-1.8Zm8.989,0h4.494a.9.9,0,1,1,0,1.8H266.06a.9.9,0,1,1,0-1.8Zm8.988,0h4.494a.9.9,0,1,1,0,1.8h-4.494a.9.9,0,0,1,0-1.8Zm8.989,0h4.494a.9.9,0,1,1,0,1.8h-4.494a.9.9,0,1,1,0-1.8Zm8.989,0h4.494a.9.9,0,0,1,0,1.8h-4.494a.9.9,0,1,1,0-1.8Zm8.989,0h4.494a.9.9,0,1,1,0,1.8h-4.494a.9.9,0,1,1,0-1.8ZM311,0H315.5a.9.9,0,1,1,0,1.8H311A.9.9,0,0,1,311,0Zm8.989,0h4.494a.9.9,0,1,1,0,1.8h-4.494a.9.9,0,0,1,0-1.8Zm8.989,0h4.494a.9.9,0,0,1,0,1.8H328.98a.9.9,0,1,1,0-1.8Zm8.989,0h4.494a.9.9,0,0,1,0,1.8h-4.494a.9.9,0,1,1,0-1.8Zm8.988,0h3.894l.028,0h.014l.028,0,.042,0,.028,0h.015l.028,0h.014l.028,0h.014l.026,0,.015,0h.013l.014,0,.015,0h.012l.014,0h.012l.014,0,.012,0,.013,0,.015,0,.025,0h0l.163.025a.9.9,0,0,1-.3,1.772,3.643,3.643,0,0,0-.6-.049h-3.6a.9.9,0,0,1,0-1.8Zm7.377,2.066a.9.9,0,0,1,.757.413,5.387,5.387,0,0,1,.342.616h0l.015.031h0l0,.01h0l0,.01h0l.009.02v0l0,.009h0l0,.01v0l0,.008v0l0,.01v0l0,.008v0l0,.01h0l0,.008v0l0,.009v0l0,.009v0l0,.007v0l0,.009v0l0,.007v0l0,.009,0,0,0,.005,0,0,0,.007,0,.005,0,.005,0,0,0,.006,0,.006,0,.006,0,0,0,0,0,.006,0,.007,0,0,0,0,0,.005,0,.007,0,.006,0,0,0,.005v0l0,.01v0l0,.006v0l0,.013h0l0,.007v0l.008.021v0l.008.021v0l0,.007h0l.005.014v0l0,.007h0l.008.022h0l.008.023h0a5.344,5.344,0,0,1,.173.6h0l.018.082h0l0,.024h0l0,.024h0l0,.008h0l0,.016h0v.008h0l0,.023h0l0,.024h0l0,.024h0V4.44l0,.023h0l0,.023v0l0,.023h0l0,.023v.011l0,.014v.012l0,.022v0l0,.022v.013l0,.012v.013l0,.012v.013l0,.021v.587s0,0,0,0V5.3s0,0,0,0,0,.007,0,.011,0,0,0,0v.011s0,.007,0,.011,0,0,0,0v.012s0,.007,0,.011v0s0,.006,0,.009,0,0,0,0v.011h0V6.808a.9.9,0,1,1-1.8,0V5.393a3.58,3.58,0,0,0-.569-1.942.9.9,0,0,1,.755-1.385Zm.713,8.338a.9.9,0,0,1,.9.9V15.8a.9.9,0,1,1-1.8,0V11.3A.9.9,0,0,1,355.046,10.4Zm0,8.989a.9.9,0,0,1,.9.9v4.494a.9.9,0,1,1-1.8,0V20.291A.9.9,0,0,1,355.046,19.392Zm0,8.989a.9.9,0,0,1,.9.9v4.494a.9.9,0,1,1-1.8,0V29.279A.9.9,0,0,1,355.046,28.38Zm0,8.989a.9.9,0,0,1,.9.9v4.494a.9.9,0,1,1-1.8,0V38.268A.9.9,0,0,1,355.046,37.369Zm0,8.989a.9.9,0,0,1,.9.9v4.494a.9.9,0,1,1-1.8,0V47.256A.9.9,0,0,1,355.046,46.358Zm0,8.989a.9.9,0,0,1,.9.9v4.494a.9.9,0,1,1-1.8,0V56.245A.9.9,0,0,1,355.046,55.346Zm0,8.989a.9.9,0,0,1,.9.9v4.494a.9.9,0,1,1-1.8,0V65.233A.9.9,0,0,1,355.046,64.335Zm0,8.989a.9.9,0,0,1,.9.9v4.494a.9.9,0,1,1-1.8,0V74.222A.9.9,0,0,1,355.046,73.323Zm0,8.989a.9.9,0,0,1,.9.9V87.7a.9.9,0,1,1-1.8,0V83.21A.9.9,0,0,1,355.046,82.312Zm0,8.989a.9.9,0,0,1,.9.9v1.282s0,.008,0,.012v0s0,.008,0,.011h0s0,.007,0,.011,0,0,0,0v.012h0s0,.007,0,.011,0,0,0,0v.012h0v.025h0s0,.007,0,.011v.015h0v.025h0v.373h0v.012h0v.011h0v.025h0v.024h0v.024h0v.025h0v.025h0v.024h0l0,.011v.013h0l0,.012v0l0,.011h0l0,.012v0l0,.011h0l0,.012v0l0,.011h0l0,.012v0l0,.023v0l0,.011h0l0,.012v0l0,.023v0l0,.023v0l0,.024h0l0,.024h0l0,.024h0l0,.024h0l0,.024h0l-.015.074h0l-.011.049h0a5.365,5.365,0,0,1-.8,1.852.9.9,0,0,1-1.487-1.01,3.574,3.574,0,0,0,.618-2.016V92.2A.9.9,0,0,1,355.046,91.3Zm-3.856,5.731a.9.9,0,0,1,.129,1.788,5.42,5.42,0,0,1-.567.051h-3.929a.9.9,0,1,1,0-1.8h3.729a3.653,3.653,0,0,0,.511-.036A.908.908,0,0,1,351.19,97.031Zm-13.355.045h4.494a.9.9,0,0,1,0,1.8h-4.494a.9.9,0,1,1,0-1.8Zm-8.989,0h4.494a.9.9,0,1,1,0,1.8h-4.494a.9.9,0,0,1,0-1.8Zm-8.989,0h4.494a.9.9,0,1,1,0,1.8h-4.494a.9.9,0,0,1,0-1.8Zm-8.988,0h4.494a.9.9,0,0,1,0,1.8h-4.494a.9.9,0,1,1,0-1.8Zm-8.989,0h4.494a.9.9,0,0,1,0,1.8h-4.494a.9.9,0,1,1,0-1.8Zm-8.989,0h4.494a.9.9,0,1,1,0,1.8h-4.494a.9.9,0,0,1,0-1.8Zm-8.989,0H288.4a.9.9,0,1,1,0,1.8H283.9a.9.9,0,0,1,0-1.8Zm-8.988,0h4.494a.9.9,0,0,1,0,1.8h-4.494a.9.9,0,1,1,0-1.8Zm-8.989,0h4.494a.9.9,0,0,1,0,1.8h-4.494a.9.9,0,1,1,0-1.8Zm-8.989,0h4.494a.9.9,0,1,1,0,1.8h-4.494a.9.9,0,0,1,0-1.8Zm-8.989,0h4.494a.9.9,0,0,1,0,1.8H247.95a.9.9,0,0,1,0-1.8Zm-8.989,0h4.494a.9.9,0,0,1,0,1.8h-4.494a.9.9,0,0,1,0-1.8Zm-8.989,0h4.494a.9.9,0,0,1,0,1.8h-4.494a.9.9,0,0,1,0-1.8Zm-8.989,0h4.494a.9.9,0,0,1,0,1.8h-4.494a.9.9,0,0,1,0-1.8Zm-8.989,0h4.494a.9.9,0,1,1,0,1.8H212a.9.9,0,0,1,0-1.8Zm-8.989,0H207.5a.9.9,0,0,1,0,1.8h-4.494a.9.9,0,0,1,0-1.8Zm-8.989,0h4.494a.9.9,0,1,1,0,1.8h-4.494a.9.9,0,0,1,0-1.8Zm-8.989,0h4.494a.9.9,0,0,1,0,1.8H185.03a.9.9,0,0,1,0-1.8Zm-8.989,0h4.494a.9.9,0,1,1,0,1.8h-4.494a.9.9,0,1,1,0-1.8Zm-8.989,0h4.494a.9.9,0,0,1,0,1.8h-4.494a.9.9,0,0,1,0-1.8Zm-8.989,0h4.494a.9.9,0,0,1,0,1.8h-4.494a.9.9,0,1,1,0-1.8Zm-8.989,0h4.494a.9.9,0,0,1,0,1.8h-4.494a.9.9,0,0,1,0-1.8Zm-8.989,0h4.494a.9.9,0,0,1,0,1.8h-4.494a.9.9,0,1,1,0-1.8Zm-8.989,0h4.494a.9.9,0,0,1,0,1.8H131.1a.9.9,0,0,1,0-1.8Zm-8.989,0H126.6a.9.9,0,1,1,0,1.8h-4.494a.9.9,0,0,1,0-1.8Zm-8.989,0h4.494a.9.9,0,1,1,0,1.8h-4.494a.9.9,0,0,1,0-1.8Zm-8.989,0h4.494a.9.9,0,1,1,0,1.8h-4.494a.9.9,0,0,1,0-1.8Zm-8.989,0h4.494a.9.9,0,1,1,0,1.8H95.145a.9.9,0,0,1,0-1.8Zm-8.989,0h4.494a.9.9,0,1,1,0,1.8H86.157a.9.9,0,1,1,0-1.8Zm-8.989,0h4.494a.9.9,0,1,1,0,1.8H77.168a.9.9,0,1,1,0-1.8Zm-8.989,0h4.494a.9.9,0,0,1,0,1.8H68.179a.9.9,0,1,1,0-1.8Zm-8.989,0h4.494a.9.9,0,0,1,0,1.8H59.191a.9.9,0,0,1,0-1.8Zm-8.989,0H54.7a.9.9,0,1,1,0,1.8H50.2a.9.9,0,0,1,0-1.8Zm-8.989,0h4.494a.9.9,0,1,1,0,1.8H41.214a.9.9,0,1,1,0-1.8Zm-8.989,0H36.72a.9.9,0,1,1,0,1.8H32.225a.9.9,0,0,1,0-1.8Zm-8.989,0h4.494a.9.9,0,0,1,0,1.8H23.237a.9.9,0,0,1,0-1.8Zm-8.989,0h4.494a.9.9,0,0,1,0,1.8H14.248a.9.9,0,0,1,0-1.8Zm-8.967,0H9.754a.9.9,0,0,1,0,1.8H5.26a.9.9,0,0,1,.021-1.8ZM.9,91.932a.9.9,0,0,1,.9.9v.649a3.593,3.593,0,0,0,.875,2.351.9.9,0,1,1-1.359,1.176,5.407,5.407,0,0,1-.5-.679h0l0-.006h0l0-.006h0l-.027-.044h0l0-.006h0l0-.005h0l0-.005v0l0,0v0l0,0h0L.74,96.21h0l0-.006h0l0-.005h0l0-.005h0l0-.006h0L.7,96.147v0l0-.005h0l0-.005v0l0-.005h0l0-.005v0l0-.005h0l-.021-.038h0l0-.005v0l0-.005v0l0-.005v0l0-.005h0l0-.005v0l0,0h0l-.01-.019h0l0-.006h0l0,0v0l0,0v0l0,0v0l0,0v0l0,0v0l0,0v0l0,0v0L.6,95.946v0l0,0v0l0,0v0l0,0v0l0,0v0l0,0,0,0,0,0v0l0,0,0,0,0,0-.007-.013,0,0,0,0,0,0,0,0,0,0,0,0,0,0,0,0,0,0,0,0v0l0,0v0l0,0v0l0,0,0-.009v0l0,0,0,0,0,0,0,0,0,0,0,0v0l0,0,0,0,0,0,0,0,0,0,0,0,0,0,0,0,0,0,0,0,0-.006,0,0v0l0,0v0l0,0v0l0,0v0l0,0,0,0,0,0,0,0,0,0,0,0,0,0,0,0,0,0v0l0-.007v0l0-.005v0l0,0v0l0,0v0l0,0,0,0,0,0v0l0,0v0l0-.005v0l0,0v0l0-.006h0l0-.007v0l0,0,0,0v0l0,0v0l0,0v0l0,0,0,0,0,0v0l0,0,0,0v0l0,0v0l0-.007v0l0,0v0l0,0v0l0,0v0l0,0v0l0,0v0l0,0v0l0,0v-.015l0,0-.005-.014v0l0-.006v0l0,0v0l0,0v0l0-.005v0l0-.006v0l0-.006v0l-.009-.023h0l0-.006v0l0-.005v0l0-.005v0l0-.005v0l0,0v0l0,0v0l0,0v0l0-.007h0l0-.008v0l0-.006h0l0-.006v0l0-.006v0l0-.005v0l0,0v0l0,0v0l0-.006v0l0-.006v0l-.008-.023v0l0,0v0l0,0v0l0-.006v0l0-.006h0l0-.006v0l-.01-.03v0l0-.006v0l0-.006v0l0,0v-.01l0,0v-.022l0-.006,0-.005v0l0-.005v-.056l0-.008h0l0-.008h0l0-.007v0l0-.005v0l0-.006v0l0-.006v0l0-.005v0l0-.006h0l-.009-.032h0l0-.007v0l0-.006v-.018l0-.006v0l0-.006v-.01l0-.015v-.057l0-.007h0l0-.008h0l0-.007v-.05l0-.007h0l0-.008h0l0-.008h0l0-.007v-.058l0-.016v-.066h0l0-.008v-.057h0l0-.024h0v-.057h0l0-.025v-.008h0v-.125l0-.016h0V94.21h0v-.065h0v-.153l0-.017h0V93.81h0v-.221s0,0,0,0,0,0,0-.006v0s0,0,0-.006v-.011H0s0,0,0-.007,0,0,0,0,0,0,0,0v0s0,0,0,0v0s0,0,0,0,0,0,0,0,0,0,0,0,0,0,0,0,0,0,0,0,0,0,0,0,0,0,0,0v0s0,0,0-.006v-.011H0v-.649A.9.9,0,0,1,.9,91.932Zm0-8.989a.9.9,0,0,1,.9.9v4.494a.9.9,0,0,1-1.8,0V83.843A.9.9,0,0,1,.9,82.944Zm0-8.989a.9.9,0,0,1,.9.9v4.494a.9.9,0,0,1-1.8,0V74.854A.9.9,0,0,1,.9,73.955Zm0-8.989a.9.9,0,0,1,.9.9V70.36a.9.9,0,0,1-1.8,0V65.866A.9.9,0,0,1,.9,64.967Zm0-8.989a.9.9,0,0,1,.9.9v4.494a.9.9,0,1,1-1.8,0V56.877A.9.9,0,0,1,.9,55.978Zm0-8.989a.9.9,0,0,1,.9.9v4.494a.9.9,0,1,1-1.8,0V47.889A.9.9,0,0,1,.9,46.99ZM.9,38a.9.9,0,0,1,.9.9v4.494a.9.9,0,1,1-1.8,0V38.9A.9.9,0,0,1,.9,38Zm0-8.989a.9.9,0,0,1,.9.9v4.494a.9.9,0,1,1-1.8,0V29.912A.9.9,0,0,1,.9,29.013Zm0-8.989a.9.9,0,0,1,.9.9v4.494a.9.9,0,0,1-1.8,0V20.923A.9.9,0,0,1,.9,20.024Zm0-8.989a.9.9,0,0,1,.9.9v4.494a.9.9,0,0,1-1.8,0V11.935A.9.9,0,0,1,.9,11.036Zm.454-8.511A.9.9,0,0,1,2.16,3.818,3.558,3.558,0,0,0,1.8,5.393V7.44a.9.9,0,1,1-1.8,0V5.393H0V5.384s0,0,0,0V5.374s0,0,0,0,0,0,0-.005v-.01s0,0,0,0,0,0,0-.006v0s0,0,0-.007v0c0-.006,0-.012,0-.019s0,0,0,0V5.3s0,0,0,0V5.186H0v-.01H0V5.117h0V5.1h0V5.057l0-.038h0V5.009h0V5a5.361,5.361,0,0,1,.53-1.969A.9.9,0,0,1,1.353,2.524ZM5.393,0H9.887a.9.9,0,0,1,0,1.8H5.393a3.6,3.6,0,0,0-1.008.143A.9.9,0,0,1,3.875.216,5.368,5.368,0,0,1,4.782.034h0l.033,0,.024,0h.01l.016,0h.009l.025,0h.494Z" transform="translate(3873 -16907.398)" fill="#ed690e"/>
    <path id="Path_13571" data-name="Path 13571" d="M1.1-8.595A1.584,1.584,0,0,1,1.67-9.967a1.885,1.885,0,0,1,1.1-.414H4.707A2.4,2.4,0,0,1,6.932-8.79Q7.7-7.2,10.358-7.2l5.684.114q2.858,0,2.858-1.867,0-1.413-3.491-2.225-1.559-.373-3.443-.739t-3.743-.918a23.162,23.162,0,0,1-3.418-1.3,6.651,6.651,0,0,1-2.525-2.054,5.035,5.035,0,0,1-.966-3.077A5.934,5.934,0,0,1,3.635-24.29q2.322-1.762,7.99-1.762l4.125.1a10.878,10.878,0,0,1,6,1.713,5,5,0,0,1,2.671,4.279,1.606,1.606,0,0,1-.568,1.38,1.846,1.846,0,0,1-1.088.422H20.832a2.4,2.4,0,0,1-2.225-1.6q-.763-1.6-3.426-1.6l-4.888-.1q-2.858,0-2.858,1.867,0,1.023,1.811,1.673a29.878,29.878,0,0,0,4.385,1.145q2.574.5,5.172,1.194a10.762,10.762,0,0,1,4.409,2.3,5.1,5.1,0,0,1,1.811,3.987,5.926,5.926,0,0,1-2.33,5.026q-2.33,1.762-7.981,1.762L9.79-2.6A10.918,10.918,0,0,1,3.781-4.316,5,5,0,0,1,1.1-8.595ZM28.01-10.121v-9.3a.979.979,0,0,1,.284-.723A.959.959,0,0,1,29-20.433h3.638a.959.959,0,0,1,.706.284.979.979,0,0,1,.284.723v9.3q0,3.9,3.085,3.9,2.03,0,4.368-2.338V-19.426a.979.979,0,0,1,.284-.723.959.959,0,0,1,.706-.284h3.621a.979.979,0,0,1,.723.284.979.979,0,0,1,.284.723v15.8a.959.959,0,0,1-.284.706.979.979,0,0,1-.723.284H42.073a.959.959,0,0,1-.706-.284.959.959,0,0,1-.284-.706V-4.665A9.09,9.09,0,0,1,35.131-2.31a7.066,7.066,0,0,1-5.14-1.924Q28.01-6.159,28.01-10.121ZM57.646-2.31A7.531,7.531,0,0,1,51.971-4.7q-2.282-2.387-2.282-6.845t2.363-6.837a8.558,8.558,0,0,1,6.358-2.379,15.846,15.846,0,0,1,4.693.828v-4.985a.979.979,0,0,1,.284-.723.959.959,0,0,1,.706-.284h3.621a.979.979,0,0,1,.723.284.979.979,0,0,1,.284.723V-3.626a.959.959,0,0,1-.284.706.979.979,0,0,1-.723.284H64.6a.952.952,0,0,1-.715-.284.974.974,0,0,1-.276-.706v-.5A10.042,10.042,0,0,1,57.646-2.31Zm1.932-14.518a3.676,3.676,0,0,0-3.167,1.259,6.9,6.9,0,0,0-.926,4.035,7.249,7.249,0,0,0,.877,4.044A3,3,0,0,0,59-6.224a8.047,8.047,0,0,0,4.1-1.462v-8.493A12.313,12.313,0,0,0,59.579-16.828ZM73.853-3.8a4.847,4.847,0,0,1-2.144-4.222,4.76,4.76,0,0,1,2.152-4.19,9.675,9.675,0,0,1,5.546-1.462h5.375a3.548,3.548,0,0,0-.8-2.647,4.058,4.058,0,0,0-2.785-.747,3.432,3.432,0,0,0-2.793.982,2.459,2.459,0,0,1-1.973.982h-2.42a.979.979,0,0,1-.723-.284.959.959,0,0,1-.284-.706q0-4.661,8.85-4.661a10.191,10.191,0,0,1,6.2,1.729A6.217,6.217,0,0,1,90.4-13.678V-3.626a.967.967,0,0,1-.276.715.967.967,0,0,1-.715.276H86.276a.952.952,0,0,1-.715-.284.974.974,0,0,1-.276-.706v-.5A9.872,9.872,0,0,1,79.366-2.3,9.522,9.522,0,0,1,73.853-3.8ZM79.8-9.991A2.7,2.7,0,0,0,78-9.439a1.779,1.779,0,0,0-.658,1.429,1.8,1.8,0,0,0,.682,1.445A2.939,2.939,0,0,0,79.959-6a8.931,8.931,0,0,0,4.823-1.462V-9.991ZM94.4-3.626V-24.915a.979.979,0,0,1,.284-.723.959.959,0,0,1,.706-.284h3.638a.959.959,0,0,1,.706.284.979.979,0,0,1,.284.723V-18.4a9.09,9.09,0,0,1,5.952-2.355,7.066,7.066,0,0,1,5.14,1.924q1.981,1.924,1.981,5.887v9.321a.959.959,0,0,1-.284.706.979.979,0,0,1-.723.284h-3.621a.959.959,0,0,1-.706-.284.959.959,0,0,1-.284-.706v-9.321q0-3.881-3.1-3.881-2.03,0-4.352,2.322v10.88a.959.959,0,0,1-.284.706.959.959,0,0,1-.706.284H95.386a.959.959,0,0,1-.706-.284A.959.959,0,0,1,94.4-3.626Zm34.654-.5V-24.347a1.523,1.523,0,0,1,.455-1.12,1.485,1.485,0,0,1,1.088-.455h3.053a1.458,1.458,0,0,1,1.08.455,1.537,1.537,0,0,1,.447,1.12V-7.231h14.144a1.458,1.458,0,0,1,1.08.455,1.5,1.5,0,0,1,.447,1.088v1.526a1.471,1.471,0,0,1-.447,1.08,1.471,1.471,0,0,1-1.08.447H130.592a1.527,1.527,0,0,1-1.088-.43A1.406,1.406,0,0,1,129.049-4.129Zm24.115-5.992v-9.3a.979.979,0,0,1,.284-.723.959.959,0,0,1,.706-.284h3.638a.959.959,0,0,1,.706.284.979.979,0,0,1,.284.723v9.3q0,3.9,3.085,3.9,2.03,0,4.368-2.338V-19.426a.979.979,0,0,1,.284-.723.959.959,0,0,1,.706-.284h3.621a.979.979,0,0,1,.723.284.979.979,0,0,1,.284.723v15.8a.959.959,0,0,1-.284.706.979.979,0,0,1-.723.284h-3.621a.959.959,0,0,1-.706-.284.959.959,0,0,1-.284-.706V-4.665a9.09,9.09,0,0,1-5.952,2.355,7.066,7.066,0,0,1-5.14-1.924Q153.164-6.159,153.164-10.121Zm22.686,6.5v-15.8a.979.979,0,0,1,.284-.723.959.959,0,0,1,.706-.284h3.638a.959.959,0,0,1,.706.284.979.979,0,0,1,.284.723V-18.4a9.09,9.09,0,0,1,5.952-2.355,7.066,7.066,0,0,1,5.14,1.924q1.981,1.924,1.981,5.887v9.321a.959.959,0,0,1-.284.706.979.979,0,0,1-.723.284h-3.621a.959.959,0,0,1-.706-.284.959.959,0,0,1-.284-.706v-9.321q0-3.881-3.1-3.881-2.03,0-4.352,2.322v10.88a.959.959,0,0,1-.284.706.959.959,0,0,1-.706.284h-3.638a.959.959,0,0,1-.706-.284A.959.959,0,0,1,175.85-3.626ZM199.673-3.8a4.847,4.847,0,0,1-2.144-4.222,4.76,4.76,0,0,1,2.152-4.19,9.675,9.675,0,0,1,5.546-1.462H210.6a3.548,3.548,0,0,0-.8-2.647,4.058,4.058,0,0,0-2.785-.747,3.432,3.432,0,0,0-2.793.982,2.459,2.459,0,0,1-1.973.982h-2.42a.979.979,0,0,1-.723-.284.959.959,0,0,1-.284-.706q0-4.661,8.85-4.661a10.191,10.191,0,0,1,6.2,1.729,6.217,6.217,0,0,1,2.338,5.351V-3.626a.967.967,0,0,1-.276.715.967.967,0,0,1-.715.276H212.1a.952.952,0,0,1-.715-.284.974.974,0,0,1-.276-.706v-.5A9.872,9.872,0,0,1,205.186-2.3,9.522,9.522,0,0,1,199.673-3.8Zm5.943-6.187a2.7,2.7,0,0,0-1.794.552,1.779,1.779,0,0,0-.658,1.429,1.8,1.8,0,0,0,.682,1.445A2.938,2.938,0,0,0,205.779-6,8.931,8.931,0,0,0,210.6-7.458V-9.991Zm13.592-5.521q0-5.245,8.461-5.245,8.9,0,8.9,4.661a.974.974,0,0,1-.276.706.952.952,0,0,1-.715.284h-2.42a2.437,2.437,0,0,1-1.965-.982q-.8-.982-3.134-.982-3.215,0-3.215,1.559,0,.731,1.259,1.218a19.051,19.051,0,0,0,3.069.853,35.094,35.094,0,0,1,3.613.934,7.484,7.484,0,0,1,3.061,1.811A4.23,4.23,0,0,1,237.1-7.556q0,5.245-8.931,5.245t-8.931-4.644a.979.979,0,0,1,.284-.723.979.979,0,0,1,.723-.284h2.42a2.437,2.437,0,0,1,1.965.982q.8.982,3.134.982,3.719,0,3.719-1.559,0-.731-1.259-1.218a20.047,20.047,0,0,0-3.077-.869q-1.819-.382-3.613-.942a7.437,7.437,0,0,1-3.061-1.811A4.2,4.2,0,0,1,219.208-15.513Z" transform="translate(3961.641 -16848.412)" fill="#ed690e"/>
    <path id="Path_13572" data-name="Path 13572" d="M0,0H76.057V76.057H0Z" transform="translate(3879.845 -16899.52)" fill="none"/>
    <path id="Path_11698" data-name="Path 11698" d="M-2.822-1956.156l-.271-.271h-9.282v-26.456a4.078,4.078,0,0,0-4.073-4.073h-9.939l-.02-4.623a4.62,4.62,0,0,0-4.615-4.613H-55.037a4.62,4.62,0,0,0-4.614,4.614v3.717l7.385-.02.021,21.261a4.615,4.615,0,0,0,4.61,4.61h10.148l0,11.1a7.346,7.346,0,0,0,3.287,6.124,7.3,7.3,0,0,0,4.1,1.247c.139,0,.278,0,.417-.012H-8.044a7.339,7.339,0,0,0,5.222-2.163,7.336,7.336,0,0,0,2.164-5.222A7.335,7.335,0,0,0-2.822-1956.156ZM-57.8-1989.713v-1.865a2.77,2.77,0,0,1,2.767-2.767,2.771,2.771,0,0,1,2.767,2.767l0,1.85Zm7.406,23.092-.022-21.987a.914.914,0,0,0,.022-.2.96.96,0,0,0-.022-.2l0-2.572a4.587,4.587,0,0,0-.924-2.766h20.324a2.771,2.771,0,0,1,2.767,2.77l.02,4.619H-39.72a.941.941,0,0,0-.169.016c-.122-.01-.245-.016-.37-.016a4.619,4.619,0,0,0-4.614,4.614v15.721a2.765,2.765,0,0,1-2.762,2.762A2.766,2.766,0,0,1-50.4-1966.621Zm6.45,2.763a4.582,4.582,0,0,0,.921-2.762v-15.721a2.771,2.771,0,0,1,2.767-2.767,2.771,2.771,0,0,1,2.767,2.766l0,18.485Zm16.895,17.554a5.419,5.419,0,0,1-2.64.907h-.637a.893.893,0,0,0-.1.005,5.441,5.441,0,0,1-2.732-.921,5.525,5.525,0,0,1-2.478-4.6l-.007-31.431a4.593,4.593,0,0,0-.925-2.766h20.121a2.229,2.229,0,0,1,2.226,2.226v26.456H-25.367a.99.99,0,0,0-.914.6l-.221.635.418.439a5.527,5.527,0,0,1,1.49,4.416A5.521,5.521,0,0,1-27.053-1946.3Zm22.925-.714a5.5,5.5,0,0,1-3.915,1.622H-25.215a7.4,7.4,0,0,0,2.458-4.735,7.372,7.372,0,0,0-.919-4.448h19.8a5.5,5.5,0,0,1,1.369,3.646A5.5,5.5,0,0,1-4.128-1947.019Z" transform="translate(3948.028 -14891.624)" fill="#ed690e"/>
    <path id="Path_11699" data-name="Path 11699" d="M-5.158-1950.429l7.926-9.059a.948.948,0,0,0-.09-1.335.937.937,0,0,0-.685-.232.942.942,0,0,0-.651.321l-7.211,8.242-3.791-4.332a.94.94,0,0,0-.651-.321.938.938,0,0,0-.685.232.948.948,0,0,0-.09,1.336l4.461,5.1a.931.931,0,0,0,.129.139.943.943,0,0,0,.623.235A.949.949,0,0,0-5.158-1950.429Z" transform="translate(3927.972 -14906.203)" fill="#ed690e"/>
    <path id="Rectangle_1144" data-name="Rectangle 1144" d="M5.393,4.494a.9.9,0,0,0-.9.9V85.875a.9.9,0,0,0,.9.9H342.947a.9.9,0,0,0,.9-.9V5.393a.9.9,0,0,0-.9-.9H5.393M5.393,0H342.947a5.393,5.393,0,0,1,5.393,5.393V85.875a5.393,5.393,0,0,1-5.393,5.393H5.393A5.393,5.393,0,0,1,0,85.875V5.393A5.393,5.393,0,0,1,5.393,0Z" transform="translate(3873 -16907.398)" fill="#ed690e"/>
  </g>
</svg>
