<svg xmlns="http://www.w3.org/2000/svg" width="39.1" height="39.1" viewBox="0 0 39.1 39.1">
  <g id="drugs-pills" transform="translate(0.75 0.75)">
    <g id="Group_5845" data-name="Group 5845" transform="translate(11.523 22.439)">
      <path id="Path_11519" data-name="Path 11519" d="M87,257.245C87,254.9,92.838,253,100.039,253s13.039,1.9,13.039,4.245-5.838,4.245-13.039,4.245a29.18,29.18,0,0,1-10.005-1.523" transform="translate(-87 -253)" fill="none" stroke="#2394ba" stroke-linecap="round" stroke-linejoin="round" stroke-width="1.5"/>
      <path id="Path_11520" data-name="Path 11520" d="M87,260v6.671c0,2.345,5.838,4.245,13.039,4.245s13.039-1.9,13.039-4.245V260" transform="translate(-87 -255.755)" fill="none" stroke="#2394ba" stroke-linecap="round" stroke-linejoin="round" stroke-width="1.5"/>
      <line id="Line_106" data-name="Line 106" y1="6.065" x2="17.587" transform="translate(4.245 1.213)" fill="none" stroke="#2394ba" stroke-linecap="round" stroke-linejoin="round" stroke-width="1.5"/>
    </g>
    <g id="Group_5846" data-name="Group 5846" transform="translate(0 0)">
      <line id="Line_107" data-name="Line 107" x2="13.342" transform="translate(3.639 18.8)" fill="none" stroke="#2394ba" stroke-linecap="round" stroke-linejoin="round" stroke-width="1.5"/>
      <path id="Path_11521" data-name="Path 11521" d="M78.31,253.4a8.415,8.415,0,0,1-1.819.2h0A8.515,8.515,0,0,1,68,245.11V224.49A8.515,8.515,0,0,1,76.49,216h0a8.515,8.515,0,0,1,8.49,8.49v11.523" transform="translate(-68 -216)" fill="none" stroke="#2394ba" stroke-linecap="round" stroke-linejoin="round" stroke-width="1.5"/>
      <path id="Path_11522" data-name="Path 11522" d="M77.639,222.255a4.871,4.871,0,0,0-3.639,4.7" transform="translate(-70.361 -218.462)" fill="none" stroke="#2394ba" stroke-linecap="round" stroke-linejoin="round" stroke-width="1.5"/>
    </g>
  </g>
</svg>
