<svg width="250" height="150" viewBox="0 0 250 150" fill="none" xmlns="http://www.w3.org/2000/svg">
<g clip-path="url(#clip0_276_19)">
<path d="M118.98 58.2195C111.841 53.3745 103.621 49.8249 94.8229 47.7877C83.8152 45.2468 72.4447 44.0396 61.0443 44.2014H17.5879C16.9015 44.2014 16.2433 44.4345 15.758 44.8494C15.2726 45.2643 15 45.8271 15 46.4139V147.712C14.9995 148.002 15.0659 148.29 15.1955 148.558C15.3251 148.826 15.5154 149.07 15.7554 149.276C15.9954 149.481 16.2804 149.644 16.5942 149.756C16.9079 149.867 17.2443 149.924 17.5839 149.924L61.1719 149.989C72.6269 150.166 84.045 148.828 95.0223 146.024C103.858 143.754 112.06 139.968 119.127 134.897C125.416 130.262 130.335 124.421 133.482 117.851C136.636 111.104 138.219 103.895 138.144 96.6298C138.262 89.187 136.664 81.7972 133.438 74.8832C130.295 68.3967 125.329 62.6731 118.98 58.2195V58.2195ZM66.9579 127.741H44.2288V66.5139H66.9579C73.0767 66.4213 79.1746 67.1495 85.0295 68.6718C89.6757 69.8941 93.9717 71.9332 97.6421 74.6582C100.952 77.2275 103.509 80.426 105.107 83.9957C106.869 88.0373 107.735 92.3239 107.663 96.6366C107.733 101.052 106.865 105.441 105.103 109.591C103.505 113.264 100.938 116.572 97.6023 119.259C93.9691 122.077 89.6746 124.199 85.0056 125.484C79.1742 127.074 73.0776 127.837 66.9579 127.741V127.741Z" fill="white"/>
<path d="M146.911 34.7617C151.988 34.0798 157.066 33.5287 162.143 33.1083C164.483 32.8854 166.666 31.9923 168.337 30.5743C170.008 29.1563 171.069 27.2967 171.347 25.298C171.878 20.9639 172.566 16.6276 173.408 12.289C173.543 11.5243 173.925 10.8069 174.51 10.2173C175.095 9.62775 175.861 9.18938 176.722 8.95144C181.429 7.89027 186.38 7.90791 191.077 9.00257C191.935 9.24674 192.697 9.69071 193.276 10.2845C193.855 10.8783 194.228 11.5985 194.355 12.364C195.152 16.7049 195.798 21.0446 196.293 25.3833C196.553 27.3843 197.597 29.2513 199.256 30.6805C200.914 32.1097 203.09 33.017 205.428 33.2548C210.498 33.7094 215.57 34.2958 220.645 35.014C221.539 35.1299 222.378 35.4564 223.067 35.9567C223.757 36.457 224.27 37.1115 224.549 37.8469C225.79 41.8713 225.769 46.1042 224.489 50.1196C224.203 50.8534 223.684 51.5046 222.989 52.0002C222.295 52.4957 221.453 52.8161 220.557 52.9253C215.48 53.6071 210.403 54.1594 205.329 54.5822C202.988 54.803 200.804 55.6948 199.132 57.1124C197.46 58.53 196.399 60.3899 196.121 62.3889C195.59 66.7276 194.904 71.0639 194.064 75.398C193.929 76.1626 193.547 76.8798 192.962 77.4693C192.376 78.0588 191.611 78.4972 190.75 78.7355C186.043 79.7983 181.092 79.7807 176.395 78.6844C175.537 78.4414 174.775 77.9983 174.195 77.405C173.615 76.8117 173.24 76.0919 173.113 75.3264V75.3264C172.316 70.9855 171.67 66.6446 171.175 62.3037C170.916 60.3034 169.873 58.4369 168.214 57.0082C166.556 55.5795 164.381 54.6727 162.044 54.4355C156.969 53.981 151.897 53.3935 146.827 52.673L143.45 52.1753L144.088 54.5105C145.179 58.1131 146.632 61.6284 148.43 65.0173C150.828 68.7151 154.377 71.7734 158.682 73.8537C162.632 75.4212 166.733 76.6929 170.94 77.6548C171.799 77.9337 172.557 78.3998 173.14 79.0068C173.723 79.6138 174.109 80.3407 174.262 81.1151C174.421 81.8378 174.581 82.564 174.744 83.2867C174.991 84.1881 175.453 85.0362 176.102 85.7778C176.75 86.5193 177.571 87.1382 178.512 87.5958C180.094 88.1803 181.797 88.485 183.52 88.4914C185.243 88.4979 186.95 88.2059 188.537 87.6333C189.483 87.1818 190.31 86.5681 190.966 85.8308C191.622 85.0934 192.093 84.2482 192.349 83.348C192.517 82.6253 192.684 81.906 192.848 81.1833C193.008 80.4098 193.402 79.6856 193.991 79.0827C194.58 78.4798 195.343 78.0193 196.205 77.7469C200.42 76.8145 204.534 75.5724 208.499 74.0344C212.825 71.9837 216.403 68.9504 218.839 65.2696C220.671 61.8927 222.157 58.3864 223.281 54.7901V54.7901C223.607 54.0557 224.152 53.407 224.862 52.9082C225.572 52.4095 226.422 52.0781 227.328 51.9469C228.173 51.8151 229.019 51.6776 229.864 51.5344C230.802 51.3193 231.665 50.9137 232.38 50.3523C233.095 49.7908 233.641 49.0899 233.971 48.3094C234.655 46.9578 235.011 45.502 235.018 44.0297C235.026 42.5574 234.684 41.099 234.015 39.7423C233.691 38.9595 233.151 38.255 232.441 37.6883C231.731 37.1216 230.872 36.7094 229.936 36.4867C229.091 36.3401 228.245 36.2003 227.4 36.0571C226.494 35.9215 225.647 35.585 224.941 35.0812C224.236 34.5775 223.698 33.9242 223.38 33.1867V33.1867C222.292 29.5819 220.837 26.0652 219.034 22.6764C216.636 18.9786 213.088 15.9203 208.782 13.8401C204.833 12.2742 200.733 11.0035 196.528 10.0423C195.668 9.7637 194.909 9.2973 194.325 8.6896C193.742 8.0819 193.355 7.35411 193.203 6.57871C193.043 5.85599 192.888 5.13326 192.72 4.40712C192.467 3.60591 191.992 2.86854 191.336 2.25735C190.679 1.64616 189.86 1.17913 188.948 0.895761C187.366 0.311231 185.663 0.00654937 183.94 0.000104434C182.217 -0.0063405 180.511 0.285579 178.923 0.858255C178.008 1.13567 177.185 1.59745 176.522 2.2045C175.86 2.81154 175.379 3.54601 175.119 4.34576C174.946 5.06849 174.779 5.79122 174.617 6.51395C174.457 7.28757 174.063 8.01191 173.474 8.61483C172.885 9.21774 172.121 9.67817 171.259 9.9503C167.043 10.883 162.93 12.1262 158.965 13.6662C154.638 15.7145 151.061 18.7485 148.63 22.431C146.797 25.8068 145.309 29.312 144.184 32.9071L143.522 35.2389L146.911 34.7617Z" fill="white"/>
</g>
<defs>
<clipPath id="clip0_276_19">
<rect width="250" height="150" fill="white"/>
</clipPath>
</defs>
</svg>
