<svg xmlns="http://www.w3.org/2000/svg" width="38.423" height="38.423" viewBox="0 0 38.423 38.423">
  <g id="Group_5826" data-name="Group 5826" transform="translate(0.75 0.75)">
    <g id="moisture-lotion" transform="translate(0 0)">
      <g id="moisture-lotion-2" data-name="moisture-lotion" transform="translate(16.675 15.484)">
        <g id="Group_5813" data-name="Group 5813" transform="translate(0 5.955)">
          <path id="Path_11491" data-name="Path 11491" d="M106.124,360h10.124v7.146a3.573,3.573,0,0,1-3.573,3.573h-13.1A3.573,3.573,0,0,1,96,367.146V360h3.573" transform="translate(-96 -355.236)" fill="none" stroke="#2394ba" stroke-linecap="round" stroke-linejoin="round" stroke-width="1.5"/>
          <path id="Path_11492" data-name="Path 11492" d="M115.484,356.764V352H100v4.764" transform="translate(-97.618 -352)" fill="none" stroke="#2394ba" stroke-linecap="round" stroke-linejoin="round" stroke-width="1.5"/>
          <line id="Line_93" data-name="Line 93" x2="3.573" transform="translate(1.191 2.382)" fill="none" stroke="#2394ba" stroke-linecap="round" stroke-linejoin="round" stroke-width="1.5"/>
          <line id="Line_94" data-name="Line 94" x2="5.36" transform="translate(13.697 2.382)" fill="none" stroke="#2394ba" stroke-linecap="round" stroke-linejoin="round" stroke-width="1.5"/>
        </g>
        <path id="Path_11493" data-name="Path 11493" d="M119,347h.6a2.382,2.382,0,0,1,2.382,2.382v.6" transform="translate(-105.303 -344.022)" fill="none" stroke="#2394ba" stroke-linecap="round" stroke-linejoin="round" stroke-width="1.5"/>
        <path id="Path_11494" data-name="Path 11494" d="M102,347.955c.421-1.684,1.074-2.422,3.573-2.978,3.789-.842,4.169-2.978,4.169-2.978s3.573.6,2.978,2.978" transform="translate(-98.427 -342)" fill="none" stroke="#2394ba" stroke-linecap="round" stroke-linejoin="round" stroke-width="1.5"/>
      </g>
      <g id="Group_5815" data-name="Group 5815">
        <g id="Group_5814" data-name="Group 5814">
          <path id="Path_11495" data-name="Path 11495" d="M79.392,346.968H70.9a1.191,1.191,0,0,1-1.188-1.112L68,320.169V316H82.293v4.169L80.58,345.856A1.191,1.191,0,0,1,79.392,346.968Z" transform="translate(-68 -316)" fill="none" stroke="#2394ba" stroke-linecap="round" stroke-linejoin="round" stroke-width="1.5"/>
          <path id="Path_11496" data-name="Path 11496" d="M81.337,368v4.169a1.786,1.786,0,0,1-1.787,1.787H74.787A1.786,1.786,0,0,1,73,372.169V368" transform="translate(-70.022 -337.032)" fill="none" stroke="#2394ba" stroke-linecap="round" stroke-linejoin="round" stroke-width="1.5"/>
          <line id="Line_95" data-name="Line 95" x2="10.124" transform="translate(4.169 4.169)" fill="none" stroke="#2394ba" stroke-linecap="round" stroke-linejoin="round" stroke-width="1.5"/>
          <line id="Line_96" data-name="Line 96" x2="1.191" transform="translate(6.551 33.945)" fill="none" stroke="#2394ba" stroke-linecap="round" stroke-linejoin="round" stroke-width="1.5"/>
        </g>
      </g>
    </g>
  </g>
</svg>
