<svg xmlns="http://www.w3.org/2000/svg" width="211.382" height="320" viewBox="0 0 211.382 320"><path d="M442.827,1771.733a13.652,13.652,0,0,1-13.65,13.654H408.526a13.652,13.652,0,0,1-13.649-13.654v-.138a13.653,13.653,0,0,1,13.649-13.655h20.651a13.653,13.653,0,0,1,13.65,13.655Zm-3.922-.138a9.728,9.728,0,0,0-9.727-9.734H408.526a9.73,9.73,0,0,0-9.728,9.734v.138a9.731,9.731,0,0,0,9.728,9.734h20.651a9.729,9.729,0,0,0,9.727-9.734Z" transform="translate(-394.877 -1540.109)" fill="#2394ba" opacity="0.1"/><path d="M607.372,1390.96l-3.073-3.45a50.039,50.039,0,1,0-67.327-.773l-3.145,3.385a54.657,54.657,0,1,1,73.545.839Z" transform="translate(-459.163 -1295.437)" fill="#fed248"/><path d="M612.82,1957.536a5.539,5.539,0,0,1-5.72,5.338H472.494a5.539,5.539,0,0,1-5.72-5.338h0a5.54,5.54,0,0,1,5.72-5.338H607.1a5.539,5.539,0,0,1,5.72,5.338Z" transform="translate(-432.912 -1642.874)" fill="#c6c5c5" opacity="0.3"/><rect width="31.552" height="3.019" transform="translate(178.007 202.697)" fill="#2394ba" opacity="0.1"/><path d="M450.528,1325.484l9.551.508-5.276,8.317Z" transform="translate(-424.317 -1311.332)" fill="#2394ba"/><path d="M827.8,1425.9l-1.4,14.5-12.743-8.277Z" transform="translate(-616.418 -1364.456)" fill="#2394ba"/><path d="M739.078,1537.48l-13.2-.189,12.65-16.385,2.091-6.519,2.464-1.628,2.949,2.57,5.248-.165,3.115-1.393,3.076,2.46-4.715,3.854-7.094,4.51Z" transform="translate(-569.982 -1410.405)" fill="#eaccb4"/><path d="M671.55,1570.645c-12.589,6.07-19.317,6.909-25.132,8.423-9.465,2.466-11.1,7.54-11.1,7.54l-5.044,7.656a77.722,77.722,0,0,0,13.644,2.292c7.178.641,6.867,9.065,6.867,9.065l25.972-17.089s7.252-9.147,4.666-13.494C677.456,1568.361,671.55,1570.645,671.55,1570.645Z" transform="translate(-519.407 -1440.826)" fill="#ed690e"/><path d="M725.1,1530.811c-3.512,4.864-20.992,23.891-20.992,23.891l-1.441,10.176s11.509,8.351,16.21-1.441c3.242-6.755,13.577-26.025,13.577-26.025Z" transform="translate(-557.705 -1419.954)" fill="#ed690e"/><path d="M480,1525.008l11.193-1.722-9.349-14.391-2.09-6.52-2.464-1.627-2.949,2.57-5.248-.164-3.116-1.394-3.076,2.461,4.715,3.854,7.094,4.51Z" transform="translate(-430.864 -1404.05)" fill="#eaccb4"/><path d="M522.916,1555.676c12.589,6.07,21.067,9.811,26.882,11.324,9.466,2.467,11.1,7.54,11.1,7.54l5.043,7.655a77.616,77.616,0,0,1-13.644,2.293c-7.178.641-6.866,9.065-6.866,9.065l-27.722-19.99s-7.253-9.147-4.667-13.494C517.011,1553.394,522.916,1555.676,522.916,1555.676Z" transform="translate(-457.095 -1432.909)" fill="#ed690e"/><path d="M497.7,1522c3.512,4.864,19.241,20.989,19.241,20.989l1.441,10.176s-11.509,8.352-16.209-1.441c-3.242-6.753-11.828-23.123-11.828-23.123Z" transform="translate(-445.38 -1415.293)" fill="#ed690e"/><rect width="3.081" height="15.292" transform="translate(9.917 64.267) rotate(-65.632)" fill="#ed690e"/><rect width="3.081" height="15.291" transform="matrix(0.577, -0.817, 0.817, 0.577, 191.537, 145.412)" fill="#ed690e"/><rect width="15.291" height="3.08" transform="matrix(0.763, -0.646, 0.646, 0.763, 29.84, 169.121)" fill="#2394ba"/><rect width="15.291" height="3.08" transform="translate(188.333 22.412) rotate(-27.177)" fill="#ed690e"/><path d="M561.274,1725.764l-1.319,10.96-6.507,43-5.657,49.788-1.7,5.94h12.447L574.1,1783.4l9.618-37.339c5.778-7.572-1.114-11.2,1.294-19.982Z" transform="translate(-474.873 -1523.086)" fill="#1b7b9b"/><path d="M620.741,1718.857s-34.126-5.594-43.172-3.422l-.317,8.5,15.834,10.085,15.883,43.555,17.957,52.71h12.028l-2.409-5.941-6.077-49.786Z" transform="translate(-491.356 -1517.357)" fill="#2394ba"/><path d="M593.8,1587.242l-20.9-1.86a45.185,45.185,0,0,0-15.342.8c-4.447,1.009-15.084,3.322-19.3,4.024,1.107,3,13.707,1.277,13.877,5.707,1.048.643,3.758,8.663,3.771,9.617.22,15.056,1.321,29.043,1.321,29.043l-.755,17.916,44.023.333,1.71-33.523s5.231-13.281,5.94-21.5C609.491,1588.529,598.14,1587.513,593.8,1587.242Z" transform="translate(-470.726 -1448.654)" fill="#ed690e"/><path d="M628.974,1521.428c1.139-5.577,1.212-13.484-10.251-15.331,0,0-7.1-1.151-10.849-1.885-7.356-1.446-10.441,7.619-4.072,10.154,1.234.493,7.564,16.082,7.55,17.07,2.577-1.007.566,10.5.49,11.4l8.939-9.291c3.262-.066,4.838-.346,5.6-2.863Z" transform="translate(-503.577 -1405.801)" fill="#3d3b78"/><path d="M629.172,1534.375l-2.6,19.637-14.991-.556.91-5.646a7.589,7.589,0,0,1-4.76-4.709c-1-2.612,1.537-17.115,1.537-17.115s6,1.831,7.918,2.376C617.72,1533.969,629.172,1534.375,629.172,1534.375Z" transform="translate(-507.354 -1417.401)" fill="#eaccb4"/><path d="M649.929,1545.415c-.327,2.031-2.167,4.788-4.888,4.349l.214-1.328c.652-4.052-.277-12.879-.277-12.879.327-2.032,1.458-3.539,3.006-3.29h0c3.093.5,3.695,2.284,3.368,4.317Z" transform="translate(-527.185 -1420.711)" fill="#3d3b78"/><path d="M613.716,1584.2s-1.576,8.028,5.123,8.61c6.506.566,12.164-7.072,12.164-7.072Z" transform="translate(-510.561 -1448.199)" fill="#fff"/><path d="M763.533,1827.064a6.631,6.631,0,0,1,4.453-12.492l.158.055a6.631,6.631,0,0,1-4.452,12.492Zm3.765-10.152-.1-.034a4.2,4.2,0,0,0-2.818,7.9l.1.036a4.193,4.193,0,0,0,5.328-2.611A4.22,4.22,0,0,0,767.3,1816.912Z" transform="translate(-587.61 -1569.878)" fill="#ed690e" opacity="0.1"/><path d="M591.358,1688.875l20.3-7.567,15.737-18.79-.586,31.639-38.277-.9Z" transform="translate(-497.322 -1489.629)" fill="#ba5916" opacity="0.47"/><path d="M601.366,1343.622l6.531,15.714a2.948,2.948,0,0,0,2.111,1.752l16.648,3.529a2.948,2.948,0,0,1,1.306,5.123l-12.928,11.067a2.951,2.951,0,0,0-1.015,2.55l1.788,16.924a2.947,2.947,0,0,1-4.468,2.824l-14.521-8.874a2.948,2.948,0,0,0-2.738-.178l-15.542,6.931a2.947,2.947,0,0,1-4.067-3.376l3.953-16.552a2.948,2.948,0,0,0-.677-2.659l-11.394-12.64a2.948,2.948,0,0,1,1.954-4.912l16.965-1.355a2.946,2.946,0,0,0,2.318-1.466l8.5-14.743A2.948,2.948,0,0,1,601.366,1343.622Z" transform="translate(-485.188 -1319.965)" fill="#fed248"/></svg>